<?xml version="1.0" encoding="utf-8"?>
<!-- Generator: Adobe Illustrator 21.1.0, SVG Export Plug-In . SVG Version: 6.00 Build 0)  -->
<svg fill="#900968" version="1.1" xmlns="http://www.w3.org/2000/svg" xmlns:xlink="http://www.w3.org/1999/xlink" x="0px" y="0px"
	 viewBox="0 0 100 100" style="enable-background:new 0 0 100 100;" xml:space="preserve">
<style type="text/css">
	.st0{display:none;}
	.st1{display:inline;}
</style>
<g id="Layer_1" class="st0">
	<g class="st1">
		<g>
			<path d="M73.6,40.4c4.3-3.6,7-8.9,7-15C80.6,14.7,71.9,6,61.2,6s-19.4,8.7-19.4,19.4c0,1.4,0.2,2.8,0.4,4.1
				c-1.1-0.2-2.2-0.3-3.4-0.3c-10.7,0-19.4,8.7-19.4,19.4c0,6,2.7,11.4,7,15c-12,4.9-20.5,16.7-20.5,30.5h6.9c0-14.4,11.7-26,26-26
				c10.7,0,19.4-8.7,19.4-19.4c0-1.4-0.2-2.8-0.4-4.1c1.1,0.2,2.2,0.3,3.4,0.3c8.5,0,16,4.1,20.7,10.3l4.7-5.2
				C83.2,45.8,78.7,42.5,73.6,40.4z M38.8,61.2c-6.9,0-12.5-5.6-12.5-12.5s5.6-12.5,12.5-12.5s12.5,5.6,12.5,12.5
				S45.7,61.2,38.8,61.2z M61.2,38c-6.9,0-12.5-5.6-12.5-12.5s5.6-12.5,12.5-12.5s12.5,5.6,12.5,12.5C73.8,32.3,68.1,38,61.2,38z"/>
		</g>
	</g>
	<g class="st1">
		<g>
			<polygon points="89,57.7 65,84.3 51.5,71.5 46.8,76.5 65.4,94.2 94.1,62.3 			"/>
		</g>
	</g>
</g>
<g id="Layer_2">
	<path d="M94,24.2v-5.2H6v5.2h10.5v5.2H6v51.6h88V29.4H83.5v-5.2H94z M42.3,29.4v-5.2h15.5v5.2H42.3z M21.6,24.2h15.5v5.2H21.6V24.2
		z M88.8,75.8H11.2V34.5h77.7V75.8z M78.4,29.4H62.9v-5.2h15.5V29.4z"/>
	<path d="M52.9,70.6l-14.5-29L32,54.5l-3.9-7.7L16.2,70.6H52.9z M24.5,65.5l3.6-7.1l3.6,7.1H24.5z M34.8,60.3l3.6-7.1l6.1,12.3h-7.1
		L34.8,60.3z"/>
	<path d="M57.7,65.5h25.8v5.2H57.7V65.5z"/>
	<path d="M57.7,55.2h25.8v5.2H57.7V55.2z"/>
	<path d="M57.7,44.8h25.8V50H57.7V44.8z"/>
</g>
</svg>
