<?xml version="1.0" encoding="utf-8"?>
<!-- Generator: Adobe Illustrator 24.0.1, SVG Export Plug-In . SVG Version: 6.00 Build 0)  -->
<svg fill="#900968" version="1.1" xmlns="http://www.w3.org/2000/svg" xmlns:xlink="http://www.w3.org/1999/xlink" x="0px" y="0px"
	 viewBox="0 0 100 100" style="enable-background:new 0 0 100 100;" xml:space="preserve">
<style type="text/css">
	.st0{display:none;}
	.st1{display:inline;}
	.st2{fill-rule:evenodd;clip-rule:evenodd;}
</style>
<g id="Layer_1" class="st0">
	<g transform="translate(0,-952.36218)" class="st1">
		<path d="M7.3,958.1c-1,0.1-1.8,1-1.8,2v84c0,1.1,0.9,2,2,2h84c1.1,0,2-0.9,2-2v-84c0-1.1-0.9-2-2-2h-84
			C7.4,958.1,7.4,958.1,7.3,958.1z M9.5,962.1h80v80h-80V962.1z M25.5,966.1c-6.6,0-12,5.4-12,12s5.4,12,12,12s12-5.4,12-12
			S32.1,966.1,25.5,966.1z M41.3,966.1c-1.1,0.1-2,1-1.9,2.1s1,2,2.1,1.9h42c1.1,0,2-0.9,2-2c0-1.1-0.9-2-2-2c0,0,0,0-0.1,0h-42
			C41.4,966.1,41.4,966.1,41.3,966.1L41.3,966.1z M25.5,970.1c4.4,0,8,3.6,8,8c0,4.4-3.6,8-8,8s-8-3.6-8-8
			C17.5,973.6,21,970.1,25.5,970.1z M41.3,976.1c-1.1,0-2,1-1.9,2.1c0,1.1,1,2,2.1,1.9c0,0,0,0,0,0h42c1.1,0,2-0.9,2-2
			c0-1.1-0.9-2-2-2c0,0,0,0-0.1,0h-42C41.4,976.1,41.4,976.1,41.3,976.1z M41.3,986.1c-1.1,0-2,1-1.9,2.1c0,1.1,1,2,2.1,1.9
			c0,0,0,0,0,0h42c1.1,0,2-0.9,2-2c0-1.1-0.9-2-2-2c0,0,0,0-0.1,0h-42C41.4,986.1,41.4,986.1,41.3,986.1z M15.3,994.1
			c-1,0.1-1.8,1-1.8,2v40c0,1.1,0.9,2,2,2h68c1.1,0,2-0.9,2-2v-40c0-1.1-0.9-2-2-2h-68C15.4,994.1,15.4,994.1,15.3,994.1z
			 M17.5,998.1h64v36h-64V998.1z M62.4,1004c-0.5,0-1,0.3-1.3,0.7l-17.3,18.2l-5.6-8c-0.5-1-1.7-1.3-2.7-0.8c-1,0.5-1.3,1.7-0.8,2.7
			c0.1,0.1,0.2,0.3,0.3,0.4l7,10c0.6,0.9,1.9,1.1,2.8,0.5c0.1-0.1,0.2-0.1,0.3-0.2l19-20c0.8-0.8,0.8-2.1,0-2.8
			C63.5,1004.2,62.9,1004,62.4,1004L62.4,1004z"/>
	</g>
</g>
<g id="Layer_2" class="st0">
	<g class="st1">
		<path class="st2" d="M43.4,9h42c4.4,0,7.9,3.6,7.9,7.9v9.2c0,4.4-3.6,7.9-7.9,7.9h-42c-4.4,0-7.9-3.6-7.9-7.9v-9.2
			C35.4,12.6,39,9,43.4,9L43.4,9z M43.4,67.4h42c4.4,0,7.9,3.6,7.9,7.9v9.2c0,4.4-3.6,7.9-7.9,7.9h-42c-4.4,0-7.9-3.6-7.9-7.9v-9.2
			C35.4,71,39,67.4,43.4,67.4L43.4,67.4z M15.6,67.4h9.2c4.4,0,7.9,3.6,7.9,7.9v9.2c0,4.4-3.6,7.9-7.9,7.9h-9.2
			c-4.4,0-7.9-3.6-7.9-7.9v-9.2C7.6,71,11.2,67.4,15.6,67.4L15.6,67.4z M24.8,73.2h-9.2c-1.2,0-2.1,1-2.1,2.2v9.2
			c0,1.2,1,2.1,2.1,2.1h9.2c1.2,0,2.1-1,2.1-2.1v-9.2C26.9,74.2,26,73.2,24.8,73.2L24.8,73.2z M85.4,73.2h-42c-1.2,0-2.1,1-2.1,2.2
			v9.2c0,1.2,1,2.1,2.1,2.1h42c1.2,0,2.1-1,2.1-2.1v-9.2C87.5,74.2,86.6,73.2,85.4,73.2L85.4,73.2z M43.4,38.2h42
			c4.4,0,7.9,3.6,7.9,7.9v9.2c0,4.4-3.6,7.9-7.9,7.9h-42c-4.4,0-7.9-3.6-7.9-7.9v-9.2C35.4,41.8,39,38.2,43.4,38.2L43.4,38.2z
			 M15.6,38.2h9.2c4.4,0,7.9,3.6,7.9,7.9v9.2c0,4.4-3.6,7.9-7.9,7.9h-9.2c-4.4,0-7.9-3.6-7.9-7.9v-9.2C7.6,41.8,11.2,38.2,15.6,38.2
			z M24.8,44h-9.2c-1.2,0-2.1,1-2.1,2.1v9.2c0,1.2,1,2.2,2.1,2.2h9.2c1.2,0,2.1-1,2.1-2.2v-9.2C26.9,45,26,44,24.8,44z M85.4,44h-42
			c-1.2,0-2.1,1-2.1,2.1v9.2c0,1.2,1,2.2,2.1,2.2h42c1.2,0,2.1-1,2.1-2.2v-9.2C87.5,45,86.6,44,85.4,44z M15.6,9h9.2
			c4.4,0,7.9,3.6,7.9,7.9v9.2c0,4.4-3.6,7.9-7.9,7.9h-9.2c-4.4,0-7.9-3.6-7.9-7.9v-9.2C7.6,12.6,11.2,9,15.6,9L15.6,9z M24.8,14.8
			h-9.2c-1.2,0-2.1,1-2.1,2.1v9.2c0,1.2,1,2.2,2.1,2.2h9.2c1.2,0,2.1-1,2.1-2.2v-9.2C26.9,15.7,26,14.8,24.8,14.8z M85.4,14.8h-42
			c-1.2,0-2.1,1-2.1,2.1v9.2c0,1.2,1,2.2,2.1,2.2h42c1.2,0,2.1-1,2.1-2.2v-9.2C87.5,15.7,86.6,14.8,85.4,14.8z"/>
	</g>
</g>
<g id="Layer_3" class="st0">
	<path class="st1" d="M80.7,38.5v-11c0,0,0,0,0,0V9.1c0-1.7-1.4-3.1-3.1-3.1H56.1c-1.3,0-2.4,0.8-2.9,2c-0.4,1.2-0.1,2.6,0.9,3.4
		l20.4,17.5v9.6L46.9,66.2L33.7,53c-1.2-1.2-3.1-1.2-4.3,0L7.9,74.5C7.3,75,7,75.8,7,76.6v12.3c0,1.7,1.4,3.1,3.1,3.1h79.9
		c1.7,0,3.1-1.4,3.1-3.1V52.1c0-0.8-0.3-1.6-0.9-2.2L80.7,38.5z M64.4,12.1h10.1v8.7L64.4,12.1z M86.9,85.9H13.1v-7.9l18.4-18.4
		l13.2,13.2c1.2,1.2,3.1,1.2,4.3,0l28.5-28.5l9.2,9.2V85.9z"/>
</g>
<g id="Layer_4" class="st0">
	<g class="st1">
		<g>
			<path d="M28.9,7c-5.6,0-10.1,4.7-10.1,10.3c0,5.6,4.5,10.1,10.1,10.1s10.1-4.5,10.1-10.1C39.1,11.7,34.5,7,28.9,7z M28.9,22.4
				c-2.8,0-5.1-2.3-5.1-5.1c0-2.8,2.3-5.2,5.1-5.2s5.1,2.4,5.1,5.2C34,20.1,31.7,22.4,28.9,22.4z"/>
		</g>
	</g>
	<g class="st1">
		<g>
			<path d="M85,7H49.2c-4.2,0-7.6,3.4-7.6,7.6v17.3l-2.2-2.2c-1.4-1.4-3.3-2.2-5.4-2.2h-5.1c-1.1,0-9.1,0-10.1,0
				c-7,0-12.7,5.7-12.7,12.7c0,1.4,0,13.1,0,15.2c0,4.2,3.4,7.6,7.6,7.6c0.9,0,1.7-0.2,2.5-0.4v23.4c0,4.2,3.4,7.6,7.6,7.6
				c1.9,0,3.7-0.7,5.1-1.9c1.3,1.2,3.1,1.9,5.1,1.9c4.2,0,7.6-3.4,7.6-7.6V52.3c1.9,0.7,4.1,0.6,5.9-0.4l8.5-4.3H85
				c4.2,0,7.6-3.4,7.6-7.6V14.6C92.6,10.4,89.2,7,85,7z M55.4,42.4l-10.1,5.1c-1,0.5-2.1,0.3-2.9-0.5l-1.5-1.5
				c-1.6-1.6-4.3-0.5-4.3,1.8c0,0,0,0,0,0v38.6c0,1.4-1.1,2.5-2.5,2.5c-1.4,0-2.5-1.1-2.5-2.5V60.4c0-1.4-1.1-2.5-2.5-2.5
				c-1.4,0-2.5,1.1-2.5,2.5v25.5c0,1.4-1.1,2.5-2.5,2.5s-2.5-1.1-2.5-2.5V55.3c0-1.9,0-13.6,0-15.2c0-1.4-1.1-2.5-2.5-2.5
				c-1.4,0-2.5,1.1-2.5,2.5c0,1.4,0,13.1,0,15.2c0,1.4-1.1,2.5-2.5,2.5s-2.5-1.1-2.5-2.5c0-1.9,0-13.6,0-15.2c0-4.2,3.4-7.6,7.6-7.6
				c1.9,0,13.6,0,15.2,0c0.7,0,1.3,0.3,1.8,0.7l7.6,7.6c0.8,0.8,1.9,1,2.9,0.5l6.9-3.4c1.3-0.6,2.8-0.1,3.4,1.1
				C57.1,40.2,56.6,41.7,55.4,42.4z M87.5,40.1c0,1.4-1.1,2.5-2.5,2.5H61.4c0,0,0-0.1,0-0.1c0.4-1.1,0.5-2.2,0.3-3.3l13.9-6.9
				c1.3-0.6,1.8-2.1,1.1-3.4c-0.6-1.3-2.1-1.8-3.4-1.1l-13.9,6.9c-2.2-2.1-5.7-2.8-8.7-1.3l-4.2,2.1V14.6c0-1.4,1.1-2.5,2.5-2.5H85
				c1.4,0,2.5,1.1,2.5,2.5V40.1z"/>
		</g>
	</g>
</g>
<g id="Layer_5">
	<g>
		<g>
			<g>
				<path d="M83.9,17.3c-0.2,0-0.3,0-0.5,0h-6.4v-5.5c0-2.2-2.1-3.5-4.3-3.5h-5.9c-2.2,0-3.8,1.3-3.8,3.5v5.5H38.7v-5.5
					c0-2.2-1.6-3.5-3.8-3.5h-5.9c-2.2,0-4.3,1.3-4.3,3.5v5.5h-6.4c-4.1-0.1-7.5,3.1-7.6,7.2c0,0.2,0,0.3,0,0.5v58.1
					c0,4.4,3.2,8.5,7.6,8.5h65.2c4.4,0,7.6-4.1,7.6-8.5V25C91.2,20.9,88,17.4,83.9,17.3z M66.7,12.2h6.2v11.1h-6.2V12.2z M28.9,12.2
					h5.7v11.1h-5.7C28.9,23.3,28.9,12.2,28.9,12.2z M87,83.1c0,2.2-1.4,4.5-3.6,4.5H18.2c-2.2,0-3.6-2.3-3.6-4.5V40.4H87V83.1
					L87,83.1z M87,25v11.4H14.6V25c-0.2-1.9,1.2-3.5,3.1-3.7c0.2,0,0.3,0,0.5,0h6.4v2.2c0,2.2,2.1,3.8,4.3,3.8h5.9
					c2.1,0.1,3.8-1.6,3.8-3.6c0-0.1,0-0.1,0-0.2v-2.2h24.1v2.2c-0.1,2.1,1.6,3.8,3.6,3.8c0.1,0,0.1,0,0.2,0h5.9
					c2.2,0,4.3-1.6,4.3-3.8v-2.2h6.4c1.9-0.1,3.5,1.3,3.6,3.2C87,24.6,87,24.8,87,25z"/>
				<path d="M39.6,67.8l-1.8,10.1c-0.1,0.4,0,0.9,0.2,1.3c0.5,1,1.7,1.4,2.7,0.8l9.1-4.7l9.1,4.7l0.9,0.2c0.4,0,0.9-0.1,1.2-0.4
					c0.6-0.4,0.9-1.2,0.8-1.9l-1.8-10.1l7.3-7c0.5-0.6,0.7-1.4,0.5-2.1c-0.3-0.7-0.9-1.2-1.6-1.3l-10.1-1.5l-4.5-9.2
					c-0.2-0.4-0.5-0.7-0.9-0.9c-1-0.5-2.2-0.1-2.7,0.9l-4.5,9.2l-10.1,1.5c-0.7,0.1-1.3,0.6-1.6,1.3c-0.2,0.7,0,1.5,0.5,2.1
					L39.6,67.8z M45.1,59.7c0.6-0.1,1.2-0.5,1.4-1.1l3.2-6.4l3.2,6.4c0.2,0.6,0.8,1,1.4,1.1l7.1,1l-5.1,4.9
					c-0.5,0.5-0.7,1.1-0.6,1.8l1.2,7.1l-6.3-3.4L49.8,71l-0.9,0.2l-6.3,3.4l1.2-7.1c0.1-0.7-0.1-1.3-0.6-1.8L38,60.7L45.1,59.7z"/>
			</g>
		</g>
	</g>
</g>
</svg>
