<?xml version="1.0" encoding="utf-8"?>
<!-- Generator: Adobe Illustrator 21.1.0, SVG Export Plug-In . SVG Version: 6.00 Build 0)  -->
<svg fill="#900968" version="1.1" id="Layer_1" xmlns="http://www.w3.org/2000/svg" xmlns:xlink="http://www.w3.org/1999/xlink" x="0px" y="0px"
	 viewBox="0 0 100 100" style="enable-background:new 0 0 100 100;" xml:space="preserve">
<g>
	<path d="M92.1,15.1H19.4c-2.7,0-4.9,2.2-4.9,4.9v4.5H9.9c-2.7,0-4.9,2.2-4.9,4.9v36.6c0,2.7,2.2,4.9,4.9,4.9h3.2v12.3
		c0,0.7,0.4,1.3,1,1.6c0.3,0.1,0.5,0.2,0.8,0.2c0.4,0,0.8-0.1,1.1-0.4l18.2-13.8h46.1l5.8,4.3c0.3,0.2,0.7,0.4,1.1,0.4
		c0.3,0,0.5-0.1,0.8-0.2c0.6-0.3,1-0.9,1-1.6V61.4h3.2c2.7,0,4.9-2.2,4.9-4.9V19.9C97,17.2,94.8,15.1,92.1,15.1L92.1,15.1z
		 M93.4,56.5c0,0.7-0.6,1.3-1.3,1.3h-5c-1,0-1.8,0.8-1.8,1.8v10.5l-15.8-12c-0.3-0.2-0.7-0.4-1.1-0.4H47.9c-1,0-1.8,0.8-1.8,1.8
		s0.8,1.8,1.8,1.8h19.9l7.7,5.8H33.6c-0.4,0-0.8,0.1-1.1,0.4l-15.8,12V69c0-1-0.8-1.8-1.8-1.8h-5c-0.7,0-1.3-0.6-1.3-1.3V29.4
		c0-0.7,0.6-1.3,1.3-1.3h4.6v28.4c0,2.7,2.2,4.9,4.9,4.9h12.4c1,0,1.8-0.8,1.8-1.8c0-1-0.8-1.8-1.8-1.8H19.4c-0.7,0-1.3-0.6-1.3-1.3
		V19.9c0-0.7,0.6-1.3,1.3-1.3h72.7c0.7,0,1.3,0.6,1.3,1.3L93.4,56.5z"/>
	<path d="M58.5,40.3c0,0,0-0.1-0.1-0.1L52.9,27c0,0,0-0.1,0-0.1c-0.2-0.4-0.5-0.7-0.9-0.9c-0.9-0.4-2,0-2.4,1L44,40.2c0,0,0,0,0,0
		l-3.1,7.3c-0.4,0.9,0,2,1,2.4c0.2,0.1,0.5,0.1,0.7,0.1c0.7,0,1.4-0.4,1.7-1.1l2.6-6.2h8.8l2.6,6.2c0.3,0.7,1,1.1,1.7,1.1
		c0.2,0,0.5,0,0.7-0.1c0.9-0.4,1.3-1.4,1-2.4L58.5,40.3z M48.3,39.1l2.9-6.8l2.9,6.8H48.3z"/>
	<path d="M83.3,44.1c1.4-2.1,2.2-4.6,2.2-7.4c0-6.7-4.9-12.2-10.9-12.2c-6,0-10.9,5.5-10.9,12.2c0,6.7,4.9,12.2,10.9,12.2
		c2.3,0,4.4-0.8,6.2-2.2l3.4,3.3c0.4,0.3,0.8,0.5,1.3,0.5c0.5,0,0.9-0.2,1.3-0.5c0.7-0.7,0.7-1.8,0-2.5L83.3,44.1z M80.7,41.5
		l-3.1-3.1c-0.7-0.7-1.8-0.7-2.5,0c-0.7,0.7-0.7,1.8,0,2.5l3.2,3.2c-1.1,0.7-2.3,1.1-3.6,1.1c-4,0-7.3-3.9-7.3-8.6
		c0-4.7,3.3-8.6,7.3-8.6c4,0,7.3,3.9,7.3,8.6C81.9,38.4,81.4,40.1,80.7,41.5z"/>
	<path d="M40,37.1c0-1-0.8-1.8-1.8-1.8h-9.7v-5.8h9.7c1,0,1.8-0.8,1.8-1.8c0-1-0.8-1.8-1.8-1.8H26.7c-1,0-1.8,0.8-1.8,1.8v21.1
		c0,1,0.8,1.8,1.8,1.8s1.8-0.8,1.8-1.8v-9.9h9.7C39.2,38.9,40,38.1,40,37.1L40,37.1z"/>
	<path d="M39.8,57.8c-1,0-1.8,0.8-1.8,1.8c0,1,0.8,1.8,1.8,1.8h0c1,0,1.8-0.8,1.8-1.8C41.6,58.6,40.8,57.8,39.8,57.8z"/>
</g>
</svg>
