<?xml version="1.0" encoding="utf-8"?>
<!-- Generator: Adobe Illustrator 21.1.0, SVG Export Plug-In . SVG Version: 6.00 Build 0)  -->
<svg fill="#900968" version="1.1" xmlns="http://www.w3.org/2000/svg" xmlns:xlink="http://www.w3.org/1999/xlink" x="0px" y="0px"
	 viewBox="0 0 100 100" style="enable-background:new 0 0 100 100;" xml:space="preserve">
<style type="text/css">
	.st0{display:none;}
	.st1{display:inline;}
	.st2{fill-rule:evenodd;clip-rule:evenodd;}
</style>
<g id="Layer_1" class="st0">
	<g class="st1">
		<g>
			<path d="M73.6,40.4c4.3-3.6,7-8.9,7-15C80.6,14.7,71.9,6,61.2,6s-19.4,8.7-19.4,19.4c0,1.4,0.2,2.8,0.4,4.1
				c-1.1-0.2-2.2-0.3-3.4-0.3c-10.7,0-19.4,8.7-19.4,19.4c0,6,2.7,11.4,7,15c-12,4.9-20.5,16.7-20.5,30.5h6.9c0-14.4,11.7-26,26-26
				c10.7,0,19.4-8.7,19.4-19.4c0-1.4-0.2-2.8-0.4-4.1c1.1,0.2,2.2,0.3,3.4,0.3c8.5,0,16,4.1,20.7,10.3l4.7-5.2
				C83.2,45.8,78.7,42.5,73.6,40.4z M38.8,61.2c-6.9,0-12.5-5.6-12.5-12.5s5.6-12.5,12.5-12.5s12.5,5.6,12.5,12.5
				S45.7,61.2,38.8,61.2z M61.2,38c-6.9,0-12.5-5.6-12.5-12.5s5.6-12.5,12.5-12.5s12.5,5.6,12.5,12.5C73.8,32.3,68.1,38,61.2,38z"/>
		</g>
	</g>
	<g class="st1">
		<g>
			<polygon points="89,57.7 65,84.3 51.5,71.5 46.8,76.5 65.4,94.2 94.1,62.3 			"/>
		</g>
	</g>
</g>
<g id="Layer_2" class="st0">
	<path class="st1" d="M94,24.2v-5.2H6v5.2h10.5v5.2H6v51.6h88V29.4H83.5v-5.2H94z M42.3,29.4v-5.2h15.5v5.2H42.3z M21.6,24.2h15.5
		v5.2H21.6V24.2z M88.8,75.8H11.2V34.5h77.7V75.8z M78.4,29.4H62.9v-5.2h15.5V29.4z"/>
	<path class="st1" d="M52.9,70.6l-14.5-29L32,54.5l-3.9-7.7L16.2,70.6H52.9z M24.5,65.5l3.6-7.1l3.6,7.1H24.5z M34.8,60.3l3.6-7.1
		l6.1,12.3h-7.1L34.8,60.3z"/>
	<path class="st1" d="M57.7,65.5h25.8v5.2H57.7V65.5z"/>
	<path class="st1" d="M57.7,55.2h25.8v5.2H57.7V55.2z"/>
	<path class="st1" d="M57.7,44.8h25.8V50H57.7V44.8z"/>
</g>
<g id="Layer_3" class="st0">
	<path class="st1" d="M82.3,50.3h-24c-0.9,0-1.6,0.7-1.6,1.6c0,0.9,0.7,1.6,1.6,1.6h24c0.9,0,1.6-0.7,1.6-1.6
		C83.9,51,83.1,50.3,82.3,50.3z"/>
	<path class="st1" d="M82.3,68.6h-24c-0.9,0-1.6,0.7-1.6,1.6c0,0.9,0.7,1.6,1.6,1.6h24c0.9,0,1.6-0.7,1.6-1.6
		C83.9,69.4,83.1,68.6,82.3,68.6z"/>
	<path class="st1" d="M33.5,71.8h18.3c0.9,0,1.6-0.7,1.6-1.6V51.9c0-0.9-0.7-1.6-1.6-1.6H33.5c-0.9,0-1.6,0.7-1.6,1.6v18.3
		C31.9,71.1,32.6,71.8,33.5,71.8z M35.1,53.5h15.2v15.2H35.1V53.5z"/>
	<path class="st1" d="M89.3,14H22.8c-0.9,0-1.6,0.7-1.6,1.6v9.1h-9.5c-0.9,0-1.6,0.7-1.6,1.6v51.6c0,3.9,3.2,7.2,7.2,7.2h66.5
		c3.9,0,7.2-3.2,7.2-7.2V15.6C90.9,14.7,90.2,14,89.3,14z M21.2,43.7h-2.4v-5.2h2.4L21.2,43.7L21.2,43.7z M13.2,77.9V27.9h8v7.5h-4
		c-0.9,0-1.6,0.7-1.6,1.6v8.4c0,0.9,0.7,1.6,1.6,1.6h4v6h-4c-0.9,0-1.6,0.7-1.6,1.6s0.7,1.6,1.6,1.6h4v6h-4c-0.9,0-1.6,0.7-1.6,1.6
		c0,0.9,0.7,1.6,1.6,1.6h4v6h-4c-0.9,0-1.6,0.7-1.6,1.6c0,0.9,0.7,1.6,1.6,1.6h4v3.5c0,2.2-1.8,4-4,4C15,81.9,13.2,80.1,13.2,77.9z
		 M87.8,77.9c0,2.2-1.8,4-4,4H23.2c0.8-1.2,1.2-2.6,1.2-4V17.2h63.4V77.9z"/>
	<path class="st1" d="M39.6,34.4h33.1c0.9,0,1.6-0.7,1.6-1.6v-8.4c0-0.9-0.7-1.6-1.6-1.6H39.6c-0.9,0-1.6,0.7-1.6,1.6v8.4
		C38,33.7,38.7,34.4,39.6,34.4z M41.2,26h29.9v5.2H41.2V26z"/>
	<path class="st1" d="M33.5,43.9h6.1c0.9,0,1.6-0.7,1.6-1.6c0-0.9-0.7-1.6-1.6-1.6h-6.1c-0.9,0-1.6,0.7-1.6,1.6
		C31.9,43.2,32.6,43.9,33.5,43.9z"/>
	<path class="st1" d="M47.3,41.5c-0.4-0.6-1.1-0.8-1.7-0.7c-0.6,0.2-1.1,0.7-1.2,1.4c-0.1,0.6,0.3,1.3,0.9,1.6
		c0.6,0.3,1.3,0.2,1.8-0.3C47.6,43,47.7,42.1,47.3,41.5z"/>
	<path class="st1" d="M50.7,42.3c0,0.9,0.7,1.6,1.6,1.6h30c0.9,0,1.6-0.7,1.6-1.6c0-0.9-0.7-1.6-1.6-1.6h-30
		C51.4,40.8,50.7,41.5,50.7,42.3z"/>
	<path class="st1" d="M81.7,62.5c0.6,0.3,1.3,0.1,1.8-0.4c0.4-0.5,0.5-1.2,0.2-1.8c-0.3-0.6-1-0.9-1.7-0.8c-0.7,0.1-1.2,0.6-1.3,1.3
		C80.6,61.5,81,62.2,81.7,62.5z"/>
	<path class="st1" d="M58.3,62.6H76c0.9,0,1.6-0.7,1.6-1.6c0-0.9-0.7-1.6-1.6-1.6H58.3c-0.9,0-1.6,0.7-1.6,1.6
		C56.7,61.9,57.4,62.6,58.3,62.6z"/>
</g>
<g id="Layer_4" class="st0">
	<g class="st1">
		<g>
			<g>
				<path d="M51.7,22.8v-12C51.7,9.8,50.9,9,50,9s-1.7,0.8-1.7,1.7v12c-18,0.9-32.5,15.8-32.5,34.1C15.8,75.7,31.2,91,50,91
					s34.2-15.3,34.2-34.2C84.2,38.6,69.8,23.7,51.7,22.8z M38.6,28.3c-2.3,2.5-4.2,5.8-5.7,9.6c-2-0.5-3.9-1-5.6-1.7
					C30.4,32.8,34.2,30.1,38.6,28.3z M25,39c2,0.8,4.2,1.6,6.7,2.2c-1.2,3.9-1.9,8.3-2.2,13c-4.5-1.4-7.7-3.2-9.3-5.1
					C21.3,45.3,22.9,42,25,39z M19.2,56.8c0-1.3,0.1-2.6,0.3-3.9c2.4,1.9,5.8,3.5,10,4.7c0.1,5.1,0.8,9.8,2,14
					c-4.8-1.3-8.5-3-10.6-5C19.8,63.6,19.2,60.3,19.2,56.8z M23.6,72.5c2.6,1.2,5.7,2.2,9.2,3c1.5,3.9,3.5,7.3,5.8,9.8
					C32.3,82.8,27,78.3,23.6,72.5z M48.3,87.4c-4.6-0.8-8.7-5-11.5-11.1c3.6,0.6,7.4,0.9,11.5,1V87.4L48.3,87.4z M48.3,73.9
					c-4.6-0.1-9-0.5-12.9-1.3c-1.4-4.2-2.2-8.9-2.4-14c4.5,1,9.8,1.6,15.3,1.7L48.3,73.9L48.3,73.9z M48.3,56.8
					C42.4,56.7,37.3,56,33,55c0.2-4.8,0.9-9.2,2.1-13.2c4.1,0.8,8.5,1.2,13.2,1.3L48.3,56.8L48.3,56.8z M48.3,39.7
					c-4.2-0.1-8.3-0.5-12-1.1c2.8-6.8,7.1-11.5,12-12.4L48.3,39.7L48.3,39.7z M72.7,36.2c-1.7,0.6-3.6,1.2-5.6,1.7
					c-1.5-3.8-3.4-7.1-5.7-9.6C65.8,30.1,69.6,32.8,72.7,36.2z M51.7,26.2c4.9,0.9,9.2,5.6,12,12.4c-3.7,0.7-7.8,1-12,1.1V26.2z
					 M51.7,43.1c4.7-0.1,9.1-0.5,13.2-1.3c1.2,3.9,2,8.4,2.1,13.1c-4.3,1-9.5,1.7-15.3,1.8V43.1z M51.7,60.2
					c5.6-0.1,10.8-0.7,15.3-1.7c-0.2,5.1-1,9.9-2.4,14c-4,0.8-8.4,1.2-12.9,1.3L51.7,60.2L51.7,60.2z M51.7,87.4V77.3
					c4.1-0.1,7.9-0.4,11.5-1C60.4,82.4,56.3,86.6,51.7,87.4z M61.4,85.4c2.3-2.6,4.3-5.9,5.8-9.8c3.5-0.8,6.6-1.8,9.2-3
					C73,78.3,67.7,82.8,61.4,85.4z M80.7,56.8c0,3.5-0.6,6.8-1.7,9.9c-2.1,2-5.8,3.7-10.6,5c1.2-4.2,1.9-9,2-14
					c4.2-1.2,7.6-2.8,10-4.7C80.6,54.2,80.7,55.5,80.7,56.8z M79.7,49c-1.5,1.8-4.7,3.6-9.3,5.1c-0.2-4.7-1-9-2.2-12.9
					c2.5-0.6,4.7-1.3,6.7-2.2C77.1,42,78.7,45.3,79.7,49z"/>
				<path d="M71.8,19.2c1.7,0.5,1.8,0.5,2.2,2.2c0.2,0.7,0.9,1.3,1.6,1.3s1.4-0.5,1.6-1.3c0.5-1.7,0.5-1.8,2.2-2.2
					c0.7-0.2,1.3-0.9,1.3-1.6c0-0.8-0.5-1.4-1.3-1.6c-1.7-0.5-1.8-0.5-2.2-2.2c-0.4-1.5-2.9-1.5-3.3,0c-0.5,1.7-0.5,1.8-2.2,2.2
					c-0.7,0.2-1.3,0.9-1.3,1.6C70.5,18.3,71,19,71.8,19.2z"/>
				<path d="M18,84.2c-1.7-0.5-1.8-0.5-2.2-2.2c-0.4-1.5-2.9-1.5-3.3,0c-0.5,1.7-0.5,1.8-2.2,2.2C9.5,84.4,9,85.1,9,85.9
					s0.5,1.4,1.3,1.6c1.7,0.5,1.8,0.5,2.2,2.2c0.2,0.7,0.9,1.3,1.6,1.3s1.4-0.5,1.6-1.3c0.5-1.7,0.5-1.8,2.2-2.2
					c0.7-0.2,1.3-0.9,1.3-1.6S18.7,84.4,18,84.2z"/>
				<path d="M89.7,27.9c-0.2-0.1-0.4-0.1-0.4-0.1c0-0.1-0.1-0.2-0.1-0.4c-0.4-1.5-2.9-1.5-3.3,0c-0.1,0.2-0.1,0.4-0.1,0.4
					c-0.1,0-0.2,0.1-0.4,0.1c-0.7,0.2-1.3,0.9-1.3,1.6s0.5,1.4,1.3,1.6c0.2,0.1,0.4,0.1,0.4,0.1c0,0.1,0.1,0.2,0.1,0.4
					c0.2,0.7,0.9,1.3,1.6,1.3s1.4-0.5,1.6-1.3c0.1-0.2,0.1-0.4,0.1-0.4c0.1,0,0.2-0.1,0.4-0.1c0.7-0.2,1.3-0.9,1.3-1.6
					S90.5,28.1,89.7,27.9z"/>
			</g>
		</g>
	</g>
</g>
<g id="Layer_5">
	<g id="ic_rewards" transform="translate(-1340.262 -397.606)">
		<path id="Path_2731" class="st2" d="M1359.2,461.1h-9.1v-33.4h5.3v28.4h2.7V425h-10.6v38.8h25.2v4.7h-25.2v2.7h27.9v-10.1
			L1359.2,461.1z"/>
		<path id="Path_2732" class="st2" d="M1424.5,425l-6.7,26.5l-6.7-26.5h-11.3l-5.2,21.3l1.4,5.5l6-24.1h7.1l6.2,24.4l2.6,10.2
			l2.6-10.2l6.2-24.4h5.2l-10.5,40.9h-7.2l-6.2-24.6l-2.6-10.4l-2.6,10.4l-6.2,24.6h-7.1l-10.5-40.9h5.4l6.3,24.4l2,7.6l0.8,3.3h2.8
			l-1.5-6.2l0-0.1l-0.7-2.4l-0.1-0.5h0l-0.6-2.3l0,0l-0.1-0.2l-0.4-1.4v-0.1l-6.4-24.7h-11l11.9,46.2h11.3l6.7-26.7l6.7,26.7h11.3
			l11.9-46.2L1424.5,425z"/>
	</g>
</g>
</svg>
