<?xml version="1.0" encoding="utf-8"?>
<!-- Generator: Adobe Illustrator 24.0.1, SVG Export Plug-In . SVG Version: 6.00 Build 0)  -->
<svg version="1.1" id="Layer_1" xmlns="http://www.w3.org/2000/svg" xmlns:xlink="http://www.w3.org/1999/xlink" x="0px" y="0px"
	 viewBox="0 0 176 34" style="enable-background:new 0 0 176 34;" xml:space="preserve">
<style type="text/css">
	.st0{fill:#ffffff;}
	.st1{fill:#ffffff;}
</style>
<g>
	<polygon class="st0" points="10.6,25.1 10,25.1 8.4,25.1 5.3,25.1 5.3,5.6 8.4,5.6 8.4,22.2 10,22.2 10,4 3.8,4 3.8,25.1 3.8,26.7
		5.3,26.7 8.4,26.7 10,26.7 18.5,26.7 18.5,29.4 5.9,29.4 5.3,29.4 3.8,29.4 3.8,31 20,31 20,25.1 	"/>
	<polygon class="st0" points="27.2,4 27.2,5.6 28.8,5.6 29.4,5.6 31.9,5.6 31.9,29.4 28.8,29.4 28.8,8.3 27.2,8.3 27.2,31 33.4,31
		33.4,4 	"/>
	<polygon class="st0" points="57.6,4 52.7,19.1 53.5,21.7 58.7,5.6 61.9,5.6 54.1,29.4 49.7,29.4 41.9,5.6 45.2,5.6 50.2,21
		50.2,21 50.2,21 50.5,21.9 51.9,26.6 52,26.5 53.7,26.5 52.7,23.5 52,21.4 52,21.4 51.7,20.8 51.3,19.5 51.3,19.5 46.4,4 39.8,4
		48.6,31 55.2,31 64,4 	"/>
	<polygon class="st1" points="95.3,4 91.3,19.4 87.4,4 80.8,4 77.8,16.4 78.6,19.6 82.1,5.6 86.2,5.6 89.8,19.8 91.3,25.8
		92.8,19.8 96.5,5.6 99.5,5.6 93.4,29.4 89.2,29.4 85.6,15 84.1,9 82.6,15 79,29.4 74.8,29.4 68.7,5.6 71.9,5.6 75.5,19.8
		76.7,24.2 77.1,26.2 78.8,26.2 77.9,22.5 77.9,22.5 77.5,21.1 77.4,20.7 77.4,20.7 77,19.4 77,19.4 77,19.3 76.8,18.4 76.8,18.4
		73.1,4 66.7,4 73.6,31 80.2,31 84.1,15.4 88,31 94.6,31 101.5,4 	"/>
	<polygon class="st1" points="113.9,25.1 113.9,20.3 122.5,20.3 122.5,14.4 113.9,14.4 113.9,12.5 112.3,12.5 112.3,14.4
		112.3,15.9 113.9,15.9 120.9,15.9 120.9,18.7 113.9,18.7 112.3,18.7 112.3,20.3 112.3,25.1 112.3,26.7 113.9,26.7 122.6,26.7
		122.6,29.4 109.3,29.4 109.3,9.8 112.3,9.9 113.9,9.9 115.4,9.9 115.4,9.9 123.7,9.9 123.7,4 107.7,4 107.7,5.6 109.3,5.6
		111.6,5.6 122.1,5.6 122.1,8.3 113.9,8.3 112.3,8.3 109.3,8.3 109.3,8.3 107.7,8.3 107.7,31 124.1,31 124.1,25.1 	"/>
	<polygon class="st1" points="139.3,25.1 138.7,25.1 137.1,25.1 134,25.1 134,5.6 137.1,5.6 137.1,22.2 138.7,22.2 138.7,4 132.5,4
		132.5,25.1 132.5,26.7 134,26.7 137.1,26.7 138.7,26.7 147.2,26.7 147.2,29.4 134.5,29.4 134,29.4 132.5,29.4 132.5,31 148.7,31
		148.7,25.1 	"/>
	<polygon class="st1" points="162.5,25.1 161.8,25.1 160.2,25.1 157.2,25.1 157.2,5.6 160.2,5.6 160.2,22.2 161.8,22.2 161.8,4
		155.6,4 155.6,25.1 155.6,26.7 157.2,26.7 160.2,26.7 161.8,26.7 170.3,26.7 170.3,29.4 157.7,29.4 157.2,29.4 155.6,29.4
		155.6,31 171.9,31 171.9,25.1 	"/>
</g>
</svg>
