<?xml version="1.0" encoding="utf-8"?>
<!-- Generator: Adobe Illustrator 21.1.0, SVG Export Plug-In . SVG Version: 6.00 Build 0)  -->
<svg fill="#900968" version="1.1" id="Layer_1" xmlns="http://www.w3.org/2000/svg" xmlns:xlink="http://www.w3.org/1999/xlink" x="0px" y="0px"
	 viewBox="0 0 100 100" style="enable-background:new 0 0 100 100;" xml:space="preserve">
<g>
	<g>
		<path d="M73.6,40.4c4.3-3.6,7-8.9,7-15C80.6,14.7,71.9,6,61.2,6s-19.4,8.7-19.4,19.4c0,1.4,0.2,2.8,0.4,4.1
			c-1.1-0.2-2.2-0.3-3.4-0.3c-10.7,0-19.4,8.7-19.4,19.4c0,6,2.7,11.4,7,15c-12,4.9-20.5,16.7-20.5,30.5h6.9c0-14.4,11.7-26,26-26
			c10.7,0,19.4-8.7,19.4-19.4c0-1.4-0.2-2.8-0.4-4.1c1.1,0.2,2.2,0.3,3.4,0.3c8.5,0,16,4.1,20.7,10.3l4.7-5.2
			C83.2,45.8,78.7,42.5,73.6,40.4z M38.8,61.2c-6.9,0-12.5-5.6-12.5-12.5s5.6-12.5,12.5-12.5s12.5,5.6,12.5,12.5
			S45.7,61.2,38.8,61.2z M61.2,38c-6.9,0-12.5-5.6-12.5-12.5s5.6-12.5,12.5-12.5s12.5,5.6,12.5,12.5C73.8,32.3,68.1,38,61.2,38z"/>
	</g>
</g>
<g>
	<g>
		<polygon points="89,57.7 65,84.3 51.5,71.5 46.8,76.5 65.4,94.2 94.1,62.3 		"/>
	</g>
</g>
</svg>
