<svg height="512" fill="#900968" viewBox="0 0 60 60" width="512" 
xmlns="http://www.w3.org/2000/svg">
<g id="Page-1" fill="none" fill-rule="evenodd"><g id="020---News-Podcast" fill-rule="nonzero"><path id="Shape" 
d="m51 30c.0018858 9.5082688-6.3850868 17.8314335-15.57 20.29l-3.64 7.6c-.338327.678829-1.0315318 1.1078677-1.79 1.1078677s-1.451673-.4290387-1.79-1.1078677l-3.64-7.6c-10.5184568-2.8155225-17.14009799-13.2037619-15.25182605-23.9275452 1.88827195-10.7237833 11.66001185-18.22543305 22.50754335-17.2787762 10.8475316.9466568 19.172123 10.0275614 19.1742827 20.9163214z" fill="#900968"/><path id="Shape" d="m30 9c-.51 0-1 0-1.5.08 10.2013679.76226327 18.3691996 8.7643908 19.3403611 18.9479952.9711615 10.1836043-5.5369505 19.5853062-15.4103611 22.2620048l-3.64 7.6c-.079145.1513219-.1765377.2923734-.29.42.4385924.4999266 1.0969971.7491378 1.7566921.6649214.659695-.0842163 1.2343757-.4908427 1.5333079-1.0849214l3.64-7.6c10.1889855-2.7189339 16.7813251-12.5726181 15.4063347-23.0281157-1.3749903-10.4554976-10.2908159-18.26972102-20.8363347-18.2618843z" fill="#900968"/><path id="Shape" d="m46 16.4v27.21c-2.7633161 3.2482832-6.4501183 5.5782585-10.57 6.68l-3.64 7.6c-.338327.678829-1.0315318 1.1078677-1.79 1.1078677s-1.451673-.4290387-1.79-1.1078677l-3.64-7.6c-4.1198817-1.1017415-7.8066839-3.4317168-10.57-6.68v-27.21c.728461-.8684758 1.5315242-1.671539 2.4-2.4h27.2c.8684758.728461 1.671539 1.5315242 2.4 2.4z" fill="#f5f5f5"/><path id="Shape" d="m43.6 14h-3c.8684758.728461 1.671539 1.5315242 2.4 2.4v27.21c-2.7633161 3.2482832-6.4501183 5.5782585-10.57 6.68l-3.64 7.6c-.079145.1513219-.1765377.2923734-.29.42.4385924.4999266 1.0969971.7491378 1.7566921.6649214.659695-.0842163 1.2343757-.4908427 1.5333079-1.0849214l3.64-7.6c4.1198817-1.1017415 7.8066839-3.4317168 10.57-6.68v-27.21c-.728461-.8684758-1.5315242-1.671539-2.4-2.4z" fill="#cfd8dc"/><rect id="Rectangle-path" fill="#900968" height="8" rx="1" width="10" x="18" y="18"/><rect id="Rectangle-path" fill="#900968" height="8" rx="1" width="10" x="32" y="34"/><path id="Shape" d="m34 19h-2c-.5522847 0-1-.4477153-1-1s.4477153-1 1-1h2c.5522847 0 1 .4477153 1 1s-.4477153 1-1 1z" fill="#900968"/><path id="Shape" d="m42 19h-4c-.5522847 0-1-.4477153-1-1s.4477153-1 1-1h4c.5522847 0 1 .4477153 1 1s-.4477153 1-1 1z" fill="#900968"/><path id="Shape" d="m42 23h-10c-.5522847 0-1-.4477153-1-1s.4477153-1 1-1h10c.5522847 0 1 .4477153 1 1s-.4477153 1-1 1z" fill="#900968"/><path id="Shape" d="m35 27h-3c-.5522847 0-1-.4477153-1-1s.4477153-1 1-1h3c.5522847 0 1 .4477153 1 1s-.4477153 1-1 1z" fill="#900968"/><path id="Shape" d="m42 27h-3c-.5522847 0-1-.4477153-1-1s.4477153-1 1-1h3c.5522847 0 1 .4477153 1 1s-.4477153 1-1 1z" fill="#900968"/><path id="Shape" d="m42 31h-24c-.5522847 0-1-.4477153-1-1s.4477153-1 1-1h24c.5522847 0 1 .4477153 1 1s-.4477153 1-1 1z" fill="#900968"/><path id="Shape" d="m28 35h-10c-.5522847 0-1-.4477153-1-1s.4477153-1 1-1h10c.5522847 0 1 .4477153 1 1s-.4477153 1-1 1z" fill="#900968"/><path id="Shape" d="m21 39h-3c-.5522847 0-1-.4477153-1-1s.4477153-1 1-1h3c.5522847 0 1 .4477153 1 1s-.4477153 1-1 1z" fill="#900968"/><path id="Shape" d="m28 39h-3c-.5522847 0-1-.4477153-1-1s.4477153-1 1-1h3c.5522847 0 1 .4477153 1 1s-.4477153 1-1 1z" fill="#900968"/><path id="Shape" d="m27 43h-9c-.5522847 0-1-.4477153-1-1s.4477153-1 1-1h9c.5522847 0 1 .4477153 1 1s-.4477153 1-1 1z" fill="#900968"/><g fill="#900968"><path id="Shape" d="m41.28 4.28c.4748325-.00090886.883553-.33560761.9780733-.80093824.0945202-.46533064-.1512258-.9329679-.5880733-1.11906176-3.6909898-1.56578372-7.6606346-2.36855681-11.67-2.36-1.3846291.00295982-2.7675818.09649285-4.14.28-.5522847.07731987-.9373199.58771525-.86 1.14s.5877153.93731986 1.14.86c4.9998489-.70152929 10.0963562-.03811952 14.75 1.92.1221817.05610928.2555956.08347623.39.08z"/><path id="Shape" d="m23 1.85c-.0721334-.25645198-.2436137-.47352086-.4764036-.60305722-.23279-.12953636-.5076446-.16083119-.7635964-.08694278-1.1522683.33406555-2.2841723.73473953-3.39 1.2-.4368475.18609386-.6825935.65373112-.5880733 1.11906176.0945203.46533063.5032408.80002938.9780733.80093824.1344044.00347623.2678183-.02389072.39-.08 1.034159-.43421705 2.0925978-.80817649 3.17-1.12.5251449-.1547378.8282405-.7029841.68-1.23z"/><path id="Shape" d="m20.66 7.89c5.9736866-2.51015765 12.7063134-2.51015765 18.68 0 .1239863.05038299.2561911.07750192.39.08.5440005.10769551 1.0723045-.24599954 1.18-.79000001.1076955-.54400046-.2459995-1.07230445-.79-1.17999999-6.4724808-2.72017719-13.7675192-2.72017719-20.24 0-.5108634.21539106-.750391.80413661-.535 1.31499999.2153911.51086339.8041366.75039105 1.315.53500001z"/><path id="Shape" d="m1.29 35h.14c.54671633-.0773971.92723305-.5832605.85-1.13-.17900357-1.2823684-.27254322-2.57522-.28-3.87-.00299613-3.7459019.75216244-7.4536624 2.22-10.9.14111991-.3286843.09616908-.7076878-.11791996-.9942434-.21408903-.2865556-.56479106-.4371287-.92-.395-.35520895.0421288-.66096014.2705591-.80208004.5992434-2.09679774 4.9885972-2.81515778 10.4488242-2.08 15.81.06057605.501169.48518533.8785995.99.88z"/><path id="Shape" d="m1.86 37c-.25460783.0742606-.46928767.2466223-.59681241.4791674s-.15744821.5062248-.08318759.7608326c.33273288 1.1526966.73343423 2.2846779 1.2 3.39.1564992.3695049.5187198.609673.92.61.13380889-.0024981.26601366-.029617.39-.08.50778259-.2157051.74494317-.8018944.53-1.31-.43473331-1.0237402-.80871583-2.0722269-1.12-3.14-.06780055-.2601408-.23748648-.482027-.47078139-.6156071-.23329492-.1335802-.51054796-.1676027-.76921861-.0943929z"/><path id="Shape" d="m7.37 19.33c-.50810558-.2149432-1.09429492.0222174-1.31.53-2.72017719 6.4724808-2.72017719 13.7675192 0 20.24.1564992.3695049.5187198.609673.92.61.1344044.0034762.26781827-.0238907.39-.08.50778259-.2157051.74494317-.8018944.53-1.31-2.50677448-5.974368-2.50677448-12.705632 0-18.68.21494317-.5081056-.02221741-1.0942949-.53-1.31z"/><path id="Shape" d="m59.7 34.12c.7351578-5.3611758.0167977-10.8214028-2.08-15.81-.2181525-.508102-.806898-.7431525-1.315-.525s-.7431525.806898-.525 1.315c1.4678376 3.4463376 2.2229961 7.1540981 2.22 10.9-.0012709 1.2909985-.088128 2.5804927-.26 3.86-.08394.5435979.2868937 1.0529357.83 1.14h.14c.5048147-.0014005.9294239-.378831.99-.88z"/><path id="Shape" d="m58.14 37c-.2559518-.0738884-.5308064-.0425936-.7635964.0869428-.2327899.1295363-.4042702.3466052-.4764036.6030572-.3105356 1.0745482-.6845255 2.129734-1.12 3.16-.2149432.5081056.0222174 1.0942949.53 1.31.1239863.050383.2561911.0775019.39.08.4012802-.000327.7635008-.2404951.92-.61.4665658-1.1053221.8672671-2.2373034 1.2-3.39.1546397-.5301934-.1498066-1.0853603-.68-1.24z"/><path id="Shape" d="m52.63 40.63c.1221817.0561093.2555956.0834762.39.08.4012802-.000327.7635008-.2404951.92-.61 2.7201772-6.4724808 2.7201772-13.7675192 0-20.24-.2157051-.5077826-.8018944-.7449432-1.31-.53-.5077826.2157051-.7449432.8018944-.53 1.31 2.5067745 5.974368 2.5067745 12.705632 0 18.68-.2149432.5081056.0222174 1.0942949.53 1.31z"/><path id="Shape" d="m13.33 44.34c2.7726737 3.2418562 6.4329083 5.6020645 10.53 6.79l3.46 7.21c.5074905 1.0182435 1.5472977 1.6618016 2.685 1.6618016s2.1775095-.6435581 2.685-1.6618016l3.45-7.19c4.0970917-1.1879355 7.7573263-3.5481438 10.53-6.79.0476711-.0433485.0881731-.0939761.12-.15 6.9647413-8.1932237 6.9647413-20.2267763 0-28.42-.0271751-.0357714-.0572789-.0692201-.09-.1-.7188403-.8388515-1.5011485-1.6211597-2.34-2.34l-.1-.09c-8.2000114-6.98743714-20.2599886-6.98743714-28.46 0l-.1.09c-.8388515.7188403-1.6211597 1.5011485-2.34 2.34l-.09.1c-6.96474133 8.1932237-6.96474133 20.2267763 0 28.42.0148275.0455384.0349661.0891722.06.13zm21.84 5c-.2820545.0777129-.5159304.2750457-.64.54l-3.63 7.56c-.1691635.3394145-.5157659.5539339-.895.5539339s-.7258365-.2145194-.895-.5539339l-3.64-7.6c-.1240696-.2649543-.3579455-.4622871-.64-.54-3.806752-1.0078207-7.228202-3.124038-9.83-6.08v-26.4c.5660079-.6460068 1.1739932-1.2539921 1.82-1.82h26.36c.6460068.5660079 1.2539921 1.1739932 1.82 1.82v26.4c-2.5991024 2.9633235-6.0208283 5.0866733-9.83 6.1zm11.83-8.83v-21c4.003559 6.4275541 4.003559 14.5724459 0 21zm-6.52-27.51h-21c6.4241422-4.01547232 14.5758578-4.01547232 21 0zm-27.48 6.52v21c-4.003559-6.4275541-4.003559-14.5724459 0-21z"/><path id="Shape" d="m27 17h-8c-1.1045695 0-2 .8954305-2 2v6c0 1.1045695.8954305 2 2 2h8c1.1045695 0 2-.8954305 2-2v-6c0-1.1045695-.8954305-2-2-2zm-8 8v-6h8v6z"/><path id="Shape" d="m41 33h-8c-1.1045695 0-2 .8954305-2 2v6c0 1.1045695.8954305 2 2 2h8c1.1045695 0 2-.8954305 2-2v-6c0-1.1045695-.8954305-2-2-2zm0 8h-8v-6h8z"/></g></g></g></svg>