<!-- <svg fill="#900968" height="629pt" viewBox="-77 -19 629 629.33435" width="629pt" xmlns="http://www.w3.org/2000/svg"><path d="m233.371094 294.5c81.328125 0 147.25-65.925781 147.25-147.25 0-81.320312-65.921875-147.25-147.25-147.25-81.320313 0-147.25 65.929688-147.25 147.25.0625 81.296875 65.953125 147.1875 147.25 147.25zm0-269.542969c67.542968 0 122.292968 54.75 122.292968 122.292969s-54.75 122.292969-122.292968 122.292969c-67.535156 0-122.292969-54.75-122.292969-122.292969.113281-67.492188 54.800781-122.183594 122.292969-122.292969zm0 0"/><path d="m233.371094 331.3125c-64.011719 0-123.539063 24.832031-167.710938 70.007812-44.800781 45.796876-69.386718 108.3125-69.386718 176.203126.019531 6.882812 5.597656 12.457031 12.480468 12.476562h449.238282c6.886718-.019531 12.457031-5.59375 12.476562-12.476562 0-67.761719-24.582031-130.40625-69.378906-176.078126-44.175782-45.175781-103.699219-70.132812-167.71875-70.132812zm-211.886719 233.730469c2.746094-56.402344 24.582031-107.941407 61.894531-146.128907 39.433594-40.308593 92.71875-62.515624 149.871094-62.515624s110.4375 22.207031 149.867188 62.515624c37.4375 38.1875 59.152343 89.726563 61.898437 146.128907zm0 0"/></svg> -->




<svg fill="#900968" version="1.1" id="Layer_1" xmlns="http://www.w3.org/2000/svg"
        xmlns:xlink="http://www.w3.org/1999/xlink" x="0px" y="0px" viewBox="0 0 90 90"
        style="enable-background:new 0 0 90 90;" xml:space="preserve">
        <g>
          <path
            d="M26.2,58.7c5.4,0,9.7-4.4,9.7-9.7s-4.4-9.7-9.7-9.7s-9.7,4.4-9.7,9.7S20.9,58.7,26.2,58.7z M26.2,43.4c3.1,0,5.6,2.5,5.6,5.6s-2.5,5.6-5.6,5.6s-5.6-2.5-5.6-5.6S23.1,43.4,26.2,43.4z"
            />
          <path
            d="M15.1,73c0-4.2,3.4-7.6,7.6-7.6h7.2c0.2,0,0.4,0,0.6,0c0.6,0.1,1.2-0.1,1.6-0.5c0.4-0.4,0.6-0.9,0.6-1.5c0-1-0.8-1.9-1.8-2c-0.4,0-0.7-0.1-1.1-0.1h-7.2C16.2,61.4,11,66.6,11,73v0.8h4.1C15.1,73.9,15.1,73,15.1,73z"
            />
          <path
            d="M33.4,73.8h4.1v-5c0-4.7,3.8-8.6,8.6-8.6h7.9c4.7,0,8.6,3.8,8.6,8.6v5h4.1v-5c0-4.3-2.1-8.2-5.7-10.6c-2.1-1.4-4.5-2.1-6.9-2.1h-7.9c-3.9,0-7.5,1.8-10,4.9c-1.8,2.2-2.7,4.9-2.7,7.8L33.4,73.8L33.4,73.8z"
            />
          <path
            d="M77.4,61.4h-7.2c-0.2,0-0.4,0-0.6,0c-1.1,0.1-2,1-2,2c0,0.6,0.2,1.1,0.6,1.5c0.4,0.4,0.9,0.6,1.5,0.5c0.1,0,0.3,0,0.4,0h7.2c4.2,0,7.6,3.4,7.6,7.6v0.8H89V73C89,66.6,83.8,61.4,77.4,61.4z"
            />
          <path
            d="M73.8,58.7c5.4,0,9.7-4.4,9.7-9.7s-4.4-9.7-9.7-9.7s-9.7,4.4-9.7,9.7S68.4,58.7,73.8,58.7z M73.8,43.4c3.1,0,5.6,2.5,5.6,5.6s-2.5,5.6-5.6,5.6c-3.1,0-5.6-2.5-5.6-5.6S70.7,43.4,73.8,43.4z"
            />
          <path
            d="M50,54.6c6.7,0,12.2-5.5,12.2-12.2S56.7,30.2,50,30.2s-12.2,5.5-12.2,12.2C37.8,49.1,43.3,54.6,50,54.6z M50,34.2c4.5,0,8.1,3.6,8.1,8.1c0,4.5-3.6,8.1-8.1,8.1c-4.5,0-8.1-3.6-8.1-8.1C41.9,37.9,45.5,34.2,50,34.2z"
            />
        </g>
</svg>
