<?xml version="1.0"?>
<svg fill="#900968" xmlns="http://www.w3.org/2000/svg" viewBox="0 0 64 64" width="512" height="512"><g id="Marketing"><path d="M56,2H14A6.006,6.006,0,0,0,8,8V34a5.969,5.969,0,0,0,1.54,4H8A6,6,0,0,0,8,50h2.153l1.861,11.165A1,1,0,0,0,13,62h4a1,1,0,0,0,1-1V50h.764l15.789,7.9c.009,0,.019,0,.028.006A.982.982,0,0,0,35,58h4a1,1,0,0,0,1-1V47.858a3.981,3.981,0,0,0,0-7.716V40H56a6.006,6.006,0,0,0,6-6V8A6.006,6.006,0,0,0,56,2ZM18,40v8H10V40ZM4,44a4,4,0,0,1,4-4v8A4,4,0,0,1,4,44ZM16,60H13.847L12.181,50H16Zm4-20.382,14-7V55.382l-14-7ZM39,30H35a2.1,2.1,0,0,0-.343.069C34.635,30.078,26.764,34,26.764,34H14V8H56V34H40V31A1,1,0,0,0,39,30ZM38,56H36V32h2Zm3-12a2,2,0,0,1-1,1.731V42.269A2,2,0,0,1,41,44ZM60,34a4,4,0,0,1-4,4H40V36H57a1,1,0,0,0,1-1V7a1,1,0,0,0-1-1H13a1,1,0,0,0-1,1V35a1,1,0,0,0,1,1h9.764l-4,2H14a4,4,0,0,1-4-4V8a4,4,0,0,1,4-4H56a4,4,0,0,1,4,4Z"/><path d="M44,21a1,1,0,0,0-.553-.895l-12-6A1,1,0,0,0,30,15V27a1,1,0,0,0,1.447.895l12-6A1,1,0,0,0,44,21ZM32,25.382V16.618L40.764,21Z"/><path d="M52,43H48a1,1,0,0,0,0,2h4a1,1,0,0,0,0-2Z"/><path d="M50.758,49.634l-3.464-2a1,1,0,0,0-1,1.732l3.464,2a1,1,0,1,0,1-1.732Z"/><path d="M44.366,51.294a1,1,0,1,0-1.732,1l2,3.464a1,1,0,1,0,1.732-1Z"/></g></svg>
