<svg xmlns="http://www.w3.org/2000/svg" xmlns:xlink="http://www.w3.org/1999/xlink" width="392.744" height="390.638" viewBox="0 0 392.744 390.638">
  <defs>
    <linearGradient id="linear-gradient" y1="0.5" x2="1" y2="0.5" gradientUnits="objectBoundingBox">
      <stop offset="0" stop-color="#fed747"/>
      <stop offset="1" stop-color="#f94e43"/>
    </linearGradient>
  </defs>
  <g id="Group_54" data-name="Group 54" transform="translate(-1241.313 -229.777)">
    <g id="Group_53" data-name="Group 53" transform="translate(1241.313 229.777)">
      <g id="Group_52" data-name="Group 52" transform="translate(0 0)">
        <g id="Group_44" data-name="Group 44" transform="translate(151.13)">
          <path id="Path_32" data-name="Path 32" d="M2507.371,1776.263s-.773,8.956,1.12,9.888l24.225-.05s0-2.795-3.891-3.417-10.727-2.9-11.883-7.973S2507.371,1776.263,2507.371,1776.263Z" transform="translate(-2429.17 -1395.618)" fill="#4a2c6a"/>
          <path id="Path_33" data-name="Path 33" d="M2252.735,1770.205s-.729,12.42,1.164,13.354l24.225-.05s0-2.8-3.892-3.417-10.726-2.9-11.882-7.974S2252.735,1770.205,2252.735,1770.205Z" transform="translate(-2244.046 -1393.025)" fill="#4a2c6a"/>
          <path id="Path_34" data-name="Path 34" d="M2250.079,1354.635a45.257,45.257,0,0,0,6.866,2.927,30.624,30.624,0,0,0,6.584.185c8.24-22.09,33.792-111.883,33.792-111.883,1.109,24.83,5.592,49.592,10.249,69.5.122.532.25,1.063.373,1.587v.008c.113.478.229.953.34,1.423a.508.508,0,0,1,.014.063c5.654,23.491,11.319,39.487,11.319,39.487s1.464,1.851,5.538,1.005c4.669-.97,6.228-3.021,6.228-3.021-3.022-95.677-4.708-149.629-4.708-149.629s-40.446-21.85-51.433-3.172S2250.079,1354.635,2250.079,1354.635Z" transform="translate(-2242.214 -975.927)" fill="#56309e"/>
          <path id="Path_35" data-name="Path 35" d="M2309.01,835.94c5.243-18.746,6.106-36.545,6.064-51.281-.055-20.974-1.939-35.746,4.373-38.237,0,0,19.5-5.669,32.925-8.167a66.464,66.464,0,0,1,6.313-3.141c4.239-1.72,20.763-25.741,23.564-31.491s7.439-30.808,7.439-30.808l6.439,2.053s1.935,28.125,1.007,35.457-21.388,38.852-23.085,41.611h0c-7.285,26.624,0,69.952-3.329,79.612-1.711,4.969-33.469,14.074-50.85,12.929-.865-.058-1.7-.14-2.486-.25l-.009,0c-4.112-.572-7.1-1.885-8.2-4.189A5.7,5.7,0,0,1,2309.01,835.94Z" transform="translate(-2284.849 -595.852)" fill="#eaeaea"/>
          <path id="Path_36" data-name="Path 36" d="M2600.2,643.44s-3.638-10.572-.978-10.879,9.339-.275,10.164,1.511-2.747,11.421-2.747,11.421Z" transform="translate(-2495.359 -566.479)" fill="#ffb792"/>
          <g id="Group_43" data-name="Group 43" transform="translate(97.378)">
            <g id="Group_42" data-name="Group 42">
              <g id="Group_40" data-name="Group 40">
                <path id="Path_37" data-name="Path 37" d="M2852.379,700.452l21.479-12.989a6.671,6.671,0,0,0-9.163-2.255,2.942,2.942,0,0,1-4.037-1l-5.812-9.612-5.029,3.041,5.814,9.612a2.943,2.943,0,0,1-1,4.038,6.67,6.67,0,0,0-2.257,9.161Z" transform="translate(-2775.645 -597.151)" fill="#ff4a1e"/>
                <path id="Path_38" data-name="Path 38" d="M2852.379,705.374l14.278-8.635c3.308-2.761,1.69-5.124.032-5.532a6.657,6.657,0,0,0-5.05.771,2.939,2.939,0,0,1-4.035-1l-5.812-9.612-1.976,1.194,5.814,9.612a2.943,2.943,0,0,1-1,4.039,6.669,6.669,0,0,0-2.257,9.16Z" transform="translate(-2775.645 -602.073)" fill="#ff4a1e"/>
                <path id="Path_39" data-name="Path 39" d="M2628.993,448.167l17.383,21.912c6.042,9.991,16.492,14.784,26.5,15.186h.005a32.7,32.7,0,0,0,9.886-1.085c2.575-.7,5.54.684,7.169,3.375l.341.563,1.855,3.063,3.66-2.214s-.852-1.414-1.866-3.092c-1.787-2.961-1.689-6.573.269-8.763a32.328,32.328,0,0,0,3.5-38.071l-11.77-25.306Z" transform="translate(-2615.091 -407.484)" fill="url(#linear-gradient)"/>
                <g id="Group_38" data-name="Group 38" transform="translate(74.979)">
                  <path id="Path_40" data-name="Path 40" d="M2864.408,440.172c-1.42-8.21,2.551-12.683,6.754-17.418,3.361-3.787,6.838-7.7,7.585-13.53a17.074,17.074,0,0,0-7.488-16.417,11.026,11.026,0,0,0-12.242-.232c-5.317,3.417-7.293,10.028-5.716,19.119a54.488,54.488,0,0,0,3.768,12.242l3.337-1.548c-.094-.2-9.28-20.371.6-26.718a7.475,7.475,0,0,1,8.287.246,13.516,13.516,0,0,1,5.806,12.839c-.6,4.7-3.559,8.031-6.687,11.556-4.383,4.937-9.351,10.533-7.628,20.487Z" transform="translate(-2852.773 -390.832)" fill="url(#linear-gradient)"/>
                </g>
                <g id="Group_39" data-name="Group 39" transform="translate(0 45.867)">
                  <path id="Path_41" data-name="Path 41" d="M2623.229,587.419c-6.611-5.071-12.417-3.632-18.563-2.109-4.914,1.218-10,2.477-15.5.433a17.075,17.075,0,0,1-11.06-14.256,11.023,11.023,0,0,1,5.48-10.949c5.5-3.123,12.268-1.8,19.587,3.817a54.527,54.527,0,0,1,9.091,9.022l-2.921,2.237c-.135-.178-13.73-17.68-23.94-11.878a7.479,7.479,0,0,0-3.632,7.455,13.517,13.517,0,0,0,8.675,11.1c4.444,1.65,8.765.579,13.34-.554,6.408-1.588,13.669-3.388,21.686,2.76Z" transform="translate(-2578.054 -558.885)" fill="url(#linear-gradient)"/>
                </g>
                <path id="Path_42" data-name="Path 42" d="M2789.808,485.265a32.7,32.7,0,0,0,9.887-1.085c2.574-.7,5.54.684,7.169,3.375l.341.563a5.532,5.532,0,0,1,2.7,2.551l2.813-1.7s-.852-1.414-1.866-3.092c-1.786-2.961-1.688-6.573.27-8.763a32.331,32.331,0,0,0,3.5-38.071l-11.77-25.306-9.414,5.692S2831.661,471.213,2789.808,485.265Z" transform="translate(-2732.014 -407.484)" fill="#ff4a1e"/>
                <path id="Path_43" data-name="Path 43" d="M2840.948,677.178l9.377-5.671a2.713,2.713,0,0,0,.916-3.714h0a2.714,2.714,0,0,0-3.715-.915l-9.377,5.671a2.712,2.712,0,0,0-.915,3.714h0A2.712,2.712,0,0,0,2840.948,677.178Z" transform="translate(-2766.214 -591.255)" fill="#ff4a1e"/>
              </g>
              <g id="Group_41" data-name="Group 41" transform="translate(40.392 28.988)">
                <path id="Path_44" data-name="Path 44" d="M2741.942,531.973l-1.063-1.629c4.389-3.181,4.38-3.866,2.311-7.035l-10.408-15.931c-1.466-2.245-2.373-1.9-4.321-.944l-1.463.642-.949-1.453a57.924,57.924,0,0,0,8.333-8.583l14.662,22.444c2.127,3.257,2.649,3.48,7.282.768l1.063,1.629Z" transform="translate(-2726.049 -497.042)" fill="#eaeaea"/>
              </g>
            </g>
          </g>
          <path id="Path_45" data-name="Path 45" d="M2614.465,634.245s.344,3.64-.824,4.326-1.579-4.326-1.579-4.326-.069,4.112-.961,4.391-1.443-4.734-1.443-4.734-.094,3.983-.7,3.845-1.017-3.845-1.017-3.845-.274,2.891-1.1,2.373-1.607-3.622-1.607-3.622Z" transform="translate(-2500.439 -566.652)" fill="#ffb792"/>
          <path id="Path_46" data-name="Path 46" d="M2593.172,649.073s-2.488-1.952-3.037-3.738-2.165-4.787-1.3-5.15,3.364,3.5,3.364,3.5Z" transform="translate(-2488.332 -572.111)" fill="#ffb792"/>
          <path id="Path_47" data-name="Path 47" d="M2400.861,878.6l.313,1.627s1.448,4.994-4.664,6.974-11.262,2.9-11.868-1.056c-.037-3.148.042-8.06-.413-10.581a17.913,17.913,0,0,0-.824-3l12.077-2.64,3.687-.123Z" transform="translate(-2339.152 -739.08)" fill="#ffb792"/>
          <path id="Path_48" data-name="Path 48" d="M2399.169,869.806l1.125,5.93c-11.474,3.039-16.492-2.083-16.888-3.167l12.077-2.64Z" transform="translate(-2339.152 -739.08)" fill="#f2ac8c"/>
          <path id="Path_49" data-name="Path 49" d="M2362.252,810.337c3.559,7.233,13.335,4.219,17.454,2.545,1.161-.469,1.871-.833,1.871-.833,1.249-.74,1.406-3.078.974-5.962-.851-5.708-4-13.554-5.512-15.362-2.275-2.721-5.861-5.349-15.094-.136S2357.689,801.071,2362.252,810.337Z" transform="translate(-2319.77 -679.307)" fill="#ffb792"/>
          <path id="Path_50" data-name="Path 50" d="M2366.192,769.32a34.068,34.068,0,0,1-10.233.1c-4.688-.644-9.4,2.835-10.855,4.217a2.636,2.636,0,0,1,.127-1.147,2.393,2.393,0,0,0-.514,1.554c-.062.081-.087.13-.062.138a3.055,3.055,0,0,0-1.4.494s.375-.166.586.047a.243.243,0,0,0,.082.052c-5.634,4.978-3.346,15.447-.58,17.242,3.328,2.159,9.043,8.1,9.043,8.1a14.722,14.722,0,0,0-1.37-4.564c-1.167-2.395,1.013-3.006,3.443-4.925s-.764-4.487,1.1-7.113,11.015-3.957,10.482-5.416C2368.979,775.982,2366.287,769.656,2366.192,769.32Z" transform="translate(-2307.919 -666.019)" fill="#4a2c6a"/>
          <path id="Path_51" data-name="Path 51" d="M2429.4,855.549s.595.9,2.978-.161c0,0,2-.886,1.538-1.941A7.028,7.028,0,0,0,2429.4,855.549Z" transform="translate(-2372.593 -727.185)" fill="#eaeaea"/>
          <path id="Path_52" data-name="Path 52" d="M2429.39,950.732s5.509,36.554,46.709,61.937l3.845,11.17h-14.871s-36.9-30.947-39.376-72.056Z" transform="translate(-2369.902 -797.918)" fill="#ffc22a"/>
          <path id="Path_53" data-name="Path 53" d="M2421.137,935.97v-5.541l-6.791,1.923,3.1,4.669Z" transform="translate(-2361.648 -783.157)" fill="#ff9f23"/>
          <path id="Path_54" data-name="Path 54" d="M2432.4,902.044l3.975,3.4a15.627,15.627,0,0,1-1.579,9.891l-8.011-4.58A11.436,11.436,0,0,0,2432.4,902.044Z" transform="translate(-2370.694 -762.519)" fill="#c8d1ce"/>
          <path id="Path_55" data-name="Path 55" d="M2388.4,919.622s-.795,4.3-2.881,6.431c0,0-9.024-1.58-11.529-5.906l3.779-5.9S2378.67,918.273,2388.4,919.622Z" transform="translate(-2332.306 -771.389)" fill="#c8d1ce"/>
          <path id="Path_56" data-name="Path 56" d="M2228.669,1277.648s-.017,8.184.736,9.811,4.13,6.929,5.688,8.063-.336-6.554.153-7.96,1.087,2.774,1.809,2.946.916-3.512,1.083-4.844-3.069-5-4.033-7.972S2228.669,1277.648,2228.669,1277.648Z" transform="translate(-2226.649 -1034.673)" fill="#ffb792"/>
          <path id="Path_57" data-name="Path 57" d="M2255.993,942.505s-7.934,2.163-13.312,14c-5.641,12.408-20.732,39.971-21.294,43.775s1,39.33,1,39.33,6.6.257,8.645-2.877c0,0,2.3-31.188,3.316-32.882s27.008-32.691,24.819-40.556S2255.993,942.505,2255.993,942.505Z" transform="translate(-2221.265 -791.937)" fill="#eaeaea"/>
          <path id="Path_58" data-name="Path 58" d="M2309.178,1127.919a21.563,21.563,0,0,0,8.2,4.189l.009,0a6.539,6.539,0,0,0,2.486.25c14.524-1.5,12.291-57.926,5.254-62.1-7.416-4.395-10.05,2.28-10.05,2.28.042,14.736-.821,32.535-6.064,51.281A5.7,5.7,0,0,0,2309.178,1127.919Z" transform="translate(-2284.849 -883.738)" fill="#c8d1ce"/>
          <path id="Path_59" data-name="Path 59" d="M2462.435,1641.772q-.144-.659-.341-1.422C2462.207,1640.827,2462.323,1641.3,2462.435,1641.772Z" transform="translate(-2396.365 -1299.319)" fill="#4a2c6a"/>
          <path id="Path_60" data-name="Path 60" d="M2433.426,1425.235c-4.445-21.034.346-77.4-1.794-78.471-2.2-1.1-8.454,8.974-8.454,8.974C2424.287,1380.568,2428.77,1405.329,2433.426,1425.235Z" transform="translate(-2368.071 -1085.8)" fill="#4a2c6a"/>
        </g>
        <g id="Group_45" data-name="Group 45" transform="translate(288.9 135.534)">
          <path id="Path_61" data-name="Path 61" d="M2843.449,1755.353l1.28-9.226-5.381-4.5-1.694,12.215Z" transform="translate(-2807.193 -1508.491)" fill="#ffb792"/>
          <path id="Path_62" data-name="Path 62" d="M2793.415,1790.989h21.939a12.065,12.065,0,0,0-.62-5.88c-1.1-2.434-2.807-3.937-2.963-5.8-1.394,1.435-3.109,2.358-6.281,1.932-.388.629-2.508,4-3.806,4.934C2800.25,1787.2,2793.857,1786.836,2793.415,1790.989Z" transform="translate(-2775.029 -1535.885)" fill="#4a2c6a"/>
          <path id="Path_63" data-name="Path 63" d="M2809.454,1303.417c1.435,11.541,2.607,22.422,3.563,32.562,5.105,54.031,4.1,87.055,4.1,87.055s.369.978,3.534.992a18.123,18.123,0,0,0,3.541-.381s11.431-35.282,10.549-55.36a30.7,30.7,0,0,0-.893-6.5c-2.741-10.272,10.148-49.559-3.863-64.188S2808.794,1298.121,2809.454,1303.417Z" transform="translate(-2786.66 -1181.141)" fill="#ff7042"/>
          <path id="Path_64" data-name="Path 64" d="M2809.454,1303.417c1.435,11.541,2.607,22.422,3.563,32.562l21.728,32.306a30.7,30.7,0,0,0-.893-6.5c-2.741-10.272,10.148-49.559-3.863-64.188S2808.794,1298.121,2809.454,1303.417Z" transform="translate(-2786.66 -1181.141)" fill="#ff4a1e"/>
          <path id="Path_65" data-name="Path 65" d="M2731.577,899.616s.528-2.636,1.125-4.649c.263-.891-1.575-6.739-2.845-7.458s-4.581,3.219-3.645,6.243c.481,1.553,1.272,6.608,1.272,6.608Z" transform="translate(-2726.048 -887.422)" fill="#ffb792"/>
          <path id="Path_66" data-name="Path 66" d="M2746.305,916.766s.69-1.529,1.315-1.777,1.292-2.748,1.75-3.739c0,0-.441-.649-1.215.186-.473.509-1.526,2-1.526,2Z" transform="translate(-2740.776 -904.572)" fill="#ffb792"/>
          <path id="Path_67" data-name="Path 67" d="M3075.163,950.074c.136.278.321.774.488,1.24,0-.127,0-.253.007-.376.009-.929,3.476-5.983,4.9-6.3s3.438,4.418,1.658,7.036c-.915,1.344-3.15,5.947-3.15,5.947l-3.7-1.909s-.212-1.664-.736-2.083-.431-3.006-.579-4.088C3074.056,949.54,3074.668,949.05,3075.163,950.074Z" transform="translate(-2979.074 -929.011)" fill="#ffb792"/>
          <path id="Path_68" data-name="Path 68" d="M2974.356,1749.429c.311-2.958.387-10.737.387-10.737s-7.928-2.535-7.637-.794c1.436,8.554,1.045,12.79,1.045,12.79l3.206,1.916Z" transform="translate(-2901.309 -1505.334)" fill="#ffb792"/>
          <path id="Path_69" data-name="Path 69" d="M2833.825,1329.078s30.626,83.954,36.655,120.37a6.1,6.1,0,0,0,4,.641,4.473,4.473,0,0,0,3.765-2.414s5.532-43.646-5.465-58.8c-7.556-10.411,3.26-56.132-14.337-59.8S2833.825,1329.078,2833.825,1329.078Z" transform="translate(-2804.41 -1207.353)" fill="#ff7042"/>
          <path id="Path_70" data-name="Path 70" d="M2850.12,1009.82a9.844,9.844,0,0,0,.463,1.025,8.373,8.373,0,0,0,.891,1.37,12.35,12.35,0,0,1-.37-1.586v0c-.05-.28-.092-.58-.13-.9a33.925,33.925,0,0,1-.077-6.03,33.186,33.186,0,0,0,.514,5.982c.047.254.1.509.159.761a13.964,13.964,0,0,0,.757,2.412c.057.143.12.283.188.422a61.748,61.748,0,0,1,6.981,7.829c1.716,2.205,3.452,4.61,5.092,7.032.633.935,1.253,1.868,1.853,2.795l0,0c.254.391.5.774.743,1.16,0,0,0,0,0,0,.3.479.6.951.886,1.422.8,1.3,1.55,2.568,2.218,3.767.153.273.3.542.446.807,2.069,3.8,3.3,6.807,3.021,7.962,0,0,.132-.093.379-.262l.234-.159c.846-.587,2.513-1.733,4.625-3.165l.14-.426,1.055-3.268a7.594,7.594,0,0,1-.082,2.944c3.312-2.239,7.442-5,11.187-7.392l0,0c2.8-1.793,5.374-3.381,7.236-4.407a47.3,47.3,0,0,0-1.173-4.74c1.094.484,2.137,2.777,2.628,3.987.125-.062.246-.116.356-.163,0,0,.2-9.36-12.019-18.19-6.405-4.627-10.947-6.825-9.991-11.348s1.785-24.477-12.32-21.323a8.767,8.767,0,0,0-2.98-1.268,2.657,2.657,0,0,1,1.1.736,10.5,10.5,0,0,0-5.764.24c-1.1.424-2.314,1.8-3.5,3.789l0,0c-.073.129-.148.256-.225.392-.5.878-.992,1.865-1.467,2.928a49.329,49.329,0,0,0-2.227,6.166v0c-.21.722-.406,1.449-.585,2.188a.6.6,0,0,0-.025.109v0C2848.914,999.318,2848.469,1005.605,2850.12,1009.82Z" transform="translate(-2815.488 -952.455)" fill="#ff4a1e"/>
          <path id="Path_71" data-name="Path 71" d="M2863.466,1080.905c-.049.013,3.948,2.906,7.339,2.5,3.188-.381,5.781-4.055,5.74-4.071-1.26-.451-1.368-2.29-.2-9.948l-.6.028-10.155.486s-.236,3.138-.665,6.063C2864.562,1078.42,2864.067,1080.726,2863.466,1080.905Z" transform="translate(-2825.961 -1019.723)" fill="#ffb792"/>
          <path id="Path_72" data-name="Path 72" d="M2869.462,1069.975s-.236,3.138-.665,6.063c5.543.666,9.21-3.936,10.82-6.549Z" transform="translate(-2829.837 -1019.798)" fill="#f2ac8c"/>
          <path id="Path_73" data-name="Path 73" d="M2871.278,1009.432s3.573-4.14,4.85-7.945c.91-2.717,1.027-13.27-9.588-13.326a14.277,14.277,0,0,0-6.186,1.343c-2.482,1.188-6.229,3.994-3.93,13.561l.492,3.189Z" transform="translate(-2820.319 -960.663)" fill="#ff4a1e"/>
          <path id="Path_74" data-name="Path 74" d="M2804.877,1161.871a43,43,0,0,0,29.8,3.814c.2-.047,13.662-2.2,13.662-2.2-.231-.633-1.973-11.035-2.2-11.617-2.942-7.6-8.321-48.819-12.816-50.852-1.147,1.25-4.428,2.1-7.234,1.856-3.232-.285-4.314-1.682-4.047-3.184-3.576,1.691-6.325,3.263-6.325,3.263C2812.45,1107.854,2804.877,1161.871,2804.877,1161.871Z" transform="translate(-2783.363 -1041.758)" fill="#eaeaea"/>
          <path id="Path_75" data-name="Path 75" d="M2856.19,1022.994s13.028,2.158,14.248-5.975,3.72-13.333-4.546-15.055-10.353,1.139-11.419,3.755S2852.833,1022.223,2856.19,1022.994Z" transform="translate(-2818.819 -970.322)" fill="#ffb792"/>
          <path id="Path_76" data-name="Path 76" d="M2876.835,996.1s2.155,10.075,7.434,12.3,7.876,1.111,7.876,1.111a15.71,15.71,0,0,1-3.717-9.937S2880.208,991.96,2876.835,996.1Z" transform="translate(-2835.681 -965.543)" fill="#ff4a1e"/>
          <path id="Path_77" data-name="Path 77" d="M2859.755,997.584s-2.988,1.734-3.947,3.708-1.886,6.2-3.108,5.865c0,0-1.729-6.887,1.845-10.107C2858.333,993.638,2859.755,997.584,2859.755,997.584Z" transform="translate(-2817.829 -966.12)" fill="#ff4a1e"/>
          <path id="Path_78" data-name="Path 78" d="M2730.76,930.832a8.329,8.329,0,0,1,2.33-.719,7.236,7.236,0,0,1,2.046.214s3.675,22.848,3.948,24.058,15.766,18.663,19.943,18.593c3.771-.063,8.24,2.849,9.069,3.408,0,0-8.784,18.573-9.223,22.063-.475,3.8-5.022,62.259-5.022,62.259s.269,2.719-4.812,1.257-6.353-2.672-6.353-2.672,4.668-46.025,5.647-60.338a27.419,27.419,0,0,1,.892-5.341,5.413,5.413,0,0,0-.875-4.6c-6.425-8.819-16.57-23.108-17.136-26.145C2730.385,958.407,2730.76,930.832,2730.76,930.832Z" transform="translate(-2729.413 -918.451)" fill="#744da5"/>
          <path id="Path_79" data-name="Path 79" d="M2926.717,1790.989h21.938a12.046,12.046,0,0,0-.619-5.88c-1.1-2.434-2.807-3.937-2.963-5.8-1.394,1.435-3.109,2.358-6.281,1.932-.389.629-2.508,4-3.806,4.934C2933.552,1787.2,2927.159,1786.836,2926.717,1790.989Z" transform="translate(-2871.949 -1535.885)" fill="#4a2c6a"/>
          <path id="Path_80" data-name="Path 80" d="M2871.331,1038.487c.739-4.55,10.179-22.818,10.179-22.818s5.968-1.785,9.895-.362,24.25-10.05,24.9-11.107,11.536-21.338,11.536-21.338a2.522,2.522,0,0,1,2.348.231,2.645,2.645,0,0,1,1.438,2.2s-8.4,25.535-10.635,29.486c-1.348,2.382-12.678,10.675-21.463,16.885a5.516,5.516,0,0,0-2.282,5.241c1.182,8.732,1.481,13.648,2.84,28.633,1.128,12.43,1.559,36.494,1.559,36.494s-9.829,3.4-16.614,3.853-8.263-6.7-8.263-6.7S2870.571,1043.164,2871.331,1038.487Z" transform="translate(-2831.633 -956.686)" fill="#744da5"/>
          <path id="Path_81" data-name="Path 81" d="M2865.235,1062.522a5.814,5.814,0,0,1-3.451.649c-1.28-.192-1.571-1.711-1.571-1.711a5.047,5.047,0,0,1,2.311,0A9.848,9.848,0,0,1,2865.235,1062.522Z" transform="translate(-2823.595 -1013.871)" fill="#eaeaea"/>
        </g>
        <g id="Group_46" data-name="Group 46" transform="translate(0 139.438)">
          <path id="Path_82" data-name="Path 82" d="M1908.851,1008.1s-4.047,6.669,3.562,10.868c0,0-5.849,2.109-7.886,1.313a4.433,4.433,0,0,0,.889.717s-5.5,1.745-8.237.792-8.64-27.566,7.584-28.97c0,0,12.8-4.582,15.5,9.7s7.635,12.895,7.635,12.895a7.715,7.715,0,0,1-1.857,1.2s-1.062-.069-1.392-.508a3.141,3.141,0,0,0,.726.9s-5.189,1.962-8.366.856S1908.9,1011.192,1908.851,1008.1Z" transform="translate(-1832.079 -967.451)" fill="#4a2c76"/>
          <path id="Path_83" data-name="Path 83" d="M1953.058,1791.111h-20.7a11.363,11.363,0,0,1,.586-5.547c1.036-2.3,2.648-3.715,2.795-5.474,1.314,1.354,2.933,2.225,5.925,1.823.368.593,2.367,3.775,3.592,4.654C1946.61,1787.54,1952.642,1787.193,1953.058,1791.111Z" transform="translate(-1859.998 -1540.358)" fill="#4a2c6a"/>
          <path id="Path_84" data-name="Path 84" d="M1928.934,1432.851a18.785,18.785,0,0,0,3.609.735c3.26.291,3.735-.68,3.735-.68s3.24-28.84,13.727-83.969a153.324,153.324,0,0,0,2.657-19.446c.164-2.119.323-4.476.5-7.241.475-7.43-.653-19.935-6.229-23.221-2.535-1.5-5.989-1.086-10.633,2.571-.364.288-.74.6-1.121.927-13.588,11.756-8.018,45.515-8.566,61.386a21.432,21.432,0,0,1-.895,6.237c-.7,1.9-2.207,4.525-2.548,7C1920.317,1397.738,1928.934,1432.851,1928.934,1432.851Z" transform="translate(-1852.978 -1190.002)" fill="#6139bc"/>
          <path id="Path_85" data-name="Path 85" d="M1935.521,1366.081l26.05-34.423c.164-2.119.322-4.476.5-7.241.474-7.43-.653-19.935-6.229-23.221l-10.632,2.571c-.365.288-.741.6-1.121.927C1930.5,1316.45,1936.07,1350.209,1935.521,1366.081Z" transform="translate(-1861.887 -1192.168)" fill="#4a2c6a"/>
          <path id="Path_86" data-name="Path 86" d="M1667.534,1610.734l8.614-18.819a11.364,11.364,0,0,1,4.8,2.84c1.658,1.9,2.858,1.561,6.632-1.059-1.42,2.195-1.613,3.488-2.492,6.376-.693.085-4.64,3.9-8.682,4.957C1674.794,1605.448,1671.27,1611.986,1667.534,1610.734Z" transform="translate(-1667.534 -1403.541)" fill="#4a2c6a"/>
          <path id="Path_87" data-name="Path 87" d="M1796.9,1325.836s-18.547,64.476-25.343,68.627-42.526,9.858-49.789,12.971c0,0-.884-1.269-.365-3.978a23.707,23.707,0,0,1,1.14-2.767s22.188-16.68,36.792-18.364c3.624-.418-7.378-55.763,17.111-57.974C1798.819,1322.334,1796.9,1325.836,1796.9,1325.836Z" transform="translate(-1706.582 -1208.548)" fill="#6139bc"/>
          <path id="Path_88" data-name="Path 88" d="M2092.517,913.228s-.5-2.488-1.061-4.386c-.249-.84,1.484-6.358,2.683-7.037s4.322,3.037,3.438,5.89c-.453,1.466-1.2,6.234-1.2,6.234Z" transform="translate(-1975.737 -901.723)" fill="#ffb792"/>
          <path id="Path_89" data-name="Path 89" d="M2087.7,929.409s-.651-1.443-1.24-1.677-1.219-2.593-1.651-3.528c0,0,.417-.612,1.148.175.445.48,1.439,1.887,1.439,1.887Z" transform="translate(-1970.923 -917.904)" fill="#ffb792"/>
          <path id="Path_90" data-name="Path 90" d="M1762.859,960.834c-.127.262-.3.729-.46,1.17,0-.12,0-.239-.006-.355-.008-.876-3.28-5.645-4.625-5.943s-3.244,4.168-1.564,6.638c.864,1.269,2.972,5.611,2.972,5.611l3.487-1.8s.2-1.57.7-1.966.407-2.836.547-3.856C1763.9,960.331,1763.327,959.868,1762.859,960.834Z" transform="translate(-1731.523 -940.962)" fill="#ffb792"/>
          <path id="Path_91" data-name="Path 91" d="M1951.99,1084.271c.044.013-3.727,2.742-6.924,2.359-3.008-.358-5.455-3.826-5.417-3.84,1.188-.425,1.291-2.16.189-9.386l.569.027,9.581.459s.224,2.96.628,5.72C1950.955,1081.926,1951.423,1084.1,1951.99,1084.271Z" transform="translate(-1865.381 -1026.547)" fill="#ffb792"/>
          <path id="Path_92" data-name="Path 92" d="M1952.013,1073.96s.223,2.96.627,5.72c-5.23.627-8.689-3.714-10.209-6.179Z" transform="translate(-1867.404 -1026.617)" fill="#f2ac8c"/>
          <path id="Path_93" data-name="Path 93" d="M1925.214,1016.838a27.68,27.68,0,0,1-4.574-7.5c-.859-2.563-.97-12.52,9.044-12.574a13.476,13.476,0,0,1,5.836,1.267c2.343,1.121,5.877,3.768,3.708,12.794l-.465,3.009Z" transform="translate(-1851.299 -970.825)" fill="#4a2c76"/>
          <path id="Path_94" data-name="Path 94" d="M1938.456,1162.142s-9.4,5.93-25.051,2.121c-.183-.045-8.9-1.435-8.9-1.435.219-.6,9.377-15.73,9.591-16.279,2.777-7.166-3.653-41.379.587-43.3,1.083,1.179,4.178,1.986,6.826,1.751,3.049-.27,4.07-1.587,3.817-3,3.375,1.6,5.968,3.079,5.968,3.079C1934.38,1109.7,1938.456,1162.142,1938.456,1162.142Z" transform="translate(-1839.829 -1047.337)" fill="#ffb792"/>
          <path id="Path_95" data-name="Path 95" d="M1946.186,1029.634s-12.291,2.036-13.441-5.639-3.512-12.579,4.288-14.2,9.765,1.075,10.773,3.543S1949.353,1028.907,1946.186,1029.634Z" transform="translate(-1859.45 -979.938)" fill="#ffb792"/>
          <path id="Path_96" data-name="Path 96" d="M1933.771,1004.26s-2.034,9.506-7.014,11.608-7.432,1.048-7.432,1.048a14.823,14.823,0,0,0,3.506-9.375S1930.589,1000.354,1933.771,1004.26Z" transform="translate(-1850.604 -975.429)" fill="#4a2c76"/>
          <path id="Path_97" data-name="Path 97" d="M1969.587,1005.659s2.818,1.636,3.723,3.5,1.78,5.845,2.933,5.534c0,0,1.63-6.5-1.74-9.536C1970.927,1001.936,1969.587,1005.659,1969.587,1005.659Z" transform="translate(-1887.148 -975.973)" fill="#4a2c76"/>
          <path id="Path_98" data-name="Path 98" d="M1771.779,957.991s7.925,24.093,10.036,27.819c1.271,2.248,15.549,11.137,23.837,17a1.432,1.432,0,0,1,.318.38.034.034,0,0,0,.009.012c2.069,3.2,8.5,23,6.962,26.55-6.464,14.936-10.894,20.712-12.5,24.9a3.981,3.981,0,0,0,2.379,5.182,68.092,68.092,0,0,0,11.184,2.926q1.321.229,2.713.406c12.739,1.617,21.363-1.372,25.741-3.581a5.83,5.83,0,0,0,3.192-5.534c-.263-4.725-2.626-9.4-3.692-20.765-.807-8.622,6.632-21.743,6.318-26.332-.124-1.815-1.552-3.987-2.324-5.394a.008.008,0,0,0,0,0c-1.367-2.49-2.12-4.741-1.208-5.99,6.063-8.32,19.15-19.792,19.686-22.656.781-4.21.429-30.229.429-30.229a7.852,7.852,0,0,0-2.2-.678,6.876,6.876,0,0,0-1.93.2s-3.469,21.558-3.727,22.7-14.873,17.609-18.814,17.542c-3.559-.06-8.576,2.688-9.357,3.217a37.807,37.807,0,0,1,3.991,13.3c.556,5.348-3.016,2.97-5.26-.691a118.824,118.824,0,0,0-9.15-12.017s-4.974-1.293-8.68.051-22.879-9.484-23.493-10.48-10.884-20.131-10.884-20.131a2.381,2.381,0,0,0-2.216.216A2.5,2.5,0,0,0,1771.779,957.991Z" transform="translate(-1743.328 -930.999)" fill="#ff7042"/>
          <path id="Path_99" data-name="Path 99" d="M1972.252,1067.063s.527,1.06,1.233,1.08a8.351,8.351,0,0,0,2.626-.334,10.157,10.157,0,0,0,.42-1.292S1973.561,1066.4,1972.252,1067.063Z" transform="translate(-1889.086 -1021.534)" fill="#eaeaea"/>
          <path id="Path_100" data-name="Path 100" d="M1878.439,1222.895a68.111,68.111,0,0,0,11.185,2.926c4.395-6.06,11.833-13.683,9.918-27.705-1.978-14.5-16.228-29.751-17.939-31.854,2.069,3.2,8.5,23,6.962,26.551-6.463,14.936-10.893,20.712-12.505,24.9A3.981,3.981,0,0,0,1878.439,1222.895Z" transform="translate(-1818.953 -1094.061)" fill="#ff4a1e"/>
          <path id="Path_101" data-name="Path 101" d="M2031.441,1083.923c-1.368-2.491-2.12-4.741-1.208-5.991,6.063-8.32,19.151-19.792,19.686-22.656-1.3,3.114-17.149,12.413-21.607,16.412C2023.905,1075.635,2031.26,1083.729,2031.441,1083.923Z" transform="translate(-1928.823 -1013.367)" fill="#ff4a1e"/>
        </g>
      </g>
    </g>
  </g>
</svg>
