<?xml version="1.0" encoding="utf-8"?>
<!-- Generator: Adobe Illustrator 23.0.3, SVG Export Plug-In . SVG Version: 6.00 Build 0)  -->
<svg fill="#900968" version="1.1" id="Layer_1" xmlns="http://www.w3.org/2000/svg" xmlns:xlink="http://www.w3.org/1999/xlink" x="0px" y="0px"
	 viewBox="0 0 100 100" style="enable-background:new 0 0 100 100;" xml:space="preserve">
<path d="M82.42,0H0v88.28C0,94.74,5.26,100,11.72,100h76.56h0c6.46,0,11.72-5.26,11.72-11.72V47.07H82.42V0z M11.72,94.14
	c-3.23,0-5.86-2.63-5.86-5.86V5.86h70.7v82.42c0,2.13,0.58,4.13,1.58,5.86H11.72z M94.14,52.93v35.35c0,3.23-2.63,5.86-5.86,5.86
	c-3.23,0-5.86-2.63-5.86-5.86V52.93H94.14z"/>
<path d="M11.72,35.35H70.7V11.72H11.72V35.35z M17.58,17.58h47.27v11.91H17.58V17.58z"/>
<path d="M47.07,41.21H70.7v5.86H47.07V41.21z"/>
<path d="M47.07,52.93H70.7v5.86H47.07V52.93z"/>
<path d="M47.07,82.23H70.7V64.65H47.07V82.23z M52.93,70.51h11.91v5.86H52.93V70.51z"/>
</svg>
