<?xml version="1.0" encoding="utf-8"?>
<!-- Generator: Adobe Illustrator 24.0.1, SVG Export Plug-In . SVG Version: 6.00 Build 0)  -->
<svg fill="#900968" version="1.1" xmlns="http://www.w3.org/2000/svg" xmlns:xlink="http://www.w3.org/1999/xlink" x="0px" y="0px"
	 viewBox="0 0 100 100" style="enable-background:new 0 0 100 100;" xml:space="preserve">
<style type="text/css">
	.st0{display:none;}
	.st1{display:inline;}
	.st2{fill-rule:evenodd;clip-rule:evenodd;}
</style>
<g id="Layer_1" class="st0">
	<g transform="translate(0,-952.36218)" class="st1">
		<path d="M7.3,958.1c-1,0.1-1.8,1-1.8,2v84c0,1.1,0.9,2,2,2h84c1.1,0,2-0.9,2-2v-84c0-1.1-0.9-2-2-2h-84
			C7.4,958.1,7.4,958.1,7.3,958.1z M9.5,962.1h80v80h-80V962.1z M25.5,966.1c-6.6,0-12,5.4-12,12s5.4,12,12,12s12-5.4,12-12
			S32.1,966.1,25.5,966.1z M41.3,966.1c-1.1,0.1-2,1-1.9,2.1s1,2,2.1,1.9h42c1.1,0,2-0.9,2-2c0-1.1-0.9-2-2-2c0,0,0,0-0.1,0h-42
			C41.4,966.1,41.4,966.1,41.3,966.1L41.3,966.1z M25.5,970.1c4.4,0,8,3.6,8,8c0,4.4-3.6,8-8,8s-8-3.6-8-8
			C17.5,973.6,21,970.1,25.5,970.1z M41.3,976.1c-1.1,0-2,1-1.9,2.1c0,1.1,1,2,2.1,1.9c0,0,0,0,0,0h42c1.1,0,2-0.9,2-2
			c0-1.1-0.9-2-2-2c0,0,0,0-0.1,0h-42C41.4,976.1,41.4,976.1,41.3,976.1z M41.3,986.1c-1.1,0-2,1-1.9,2.1c0,1.1,1,2,2.1,1.9
			c0,0,0,0,0,0h42c1.1,0,2-0.9,2-2c0-1.1-0.9-2-2-2c0,0,0,0-0.1,0h-42C41.4,986.1,41.4,986.1,41.3,986.1z M15.3,994.1
			c-1,0.1-1.8,1-1.8,2v40c0,1.1,0.9,2,2,2h68c1.1,0,2-0.9,2-2v-40c0-1.1-0.9-2-2-2h-68C15.4,994.1,15.4,994.1,15.3,994.1z
			 M17.5,998.1h64v36h-64V998.1z M62.4,1004c-0.5,0-1,0.3-1.3,0.7l-17.3,18.2l-5.6-8c-0.5-1-1.7-1.3-2.7-0.8c-1,0.5-1.3,1.7-0.8,2.7
			c0.1,0.1,0.2,0.3,0.3,0.4l7,10c0.6,0.9,1.9,1.1,2.8,0.5c0.1-0.1,0.2-0.1,0.3-0.2l19-20c0.8-0.8,0.8-2.1,0-2.8
			C63.5,1004.2,62.9,1004,62.4,1004L62.4,1004z"/>
	</g>
</g>
<g id="Layer_2">
	<g>
		<path class="st2" d="M43.4,9h42c4.4,0,7.9,3.6,7.9,7.9v9.2c0,4.4-3.6,7.9-7.9,7.9h-42c-4.4,0-7.9-3.6-7.9-7.9v-9.2
			C35.4,12.6,39,9,43.4,9L43.4,9z M43.4,67.4h42c4.4,0,7.9,3.6,7.9,7.9v9.2c0,4.4-3.6,7.9-7.9,7.9h-42c-4.4,0-7.9-3.6-7.9-7.9v-9.2
			C35.4,71,39,67.4,43.4,67.4L43.4,67.4z M15.6,67.4h9.2c4.4,0,7.9,3.6,7.9,7.9v9.2c0,4.4-3.6,7.9-7.9,7.9h-9.2
			c-4.4,0-7.9-3.6-7.9-7.9v-9.2C7.6,71,11.2,67.4,15.6,67.4L15.6,67.4z M24.8,73.2h-9.2c-1.2,0-2.1,1-2.1,2.2v9.2
			c0,1.2,1,2.1,2.1,2.1h9.2c1.2,0,2.1-1,2.1-2.1v-9.2C26.9,74.2,26,73.2,24.8,73.2L24.8,73.2z M85.4,73.2h-42c-1.2,0-2.1,1-2.1,2.2
			v9.2c0,1.2,1,2.1,2.1,2.1h42c1.2,0,2.1-1,2.1-2.1v-9.2C87.5,74.2,86.6,73.2,85.4,73.2L85.4,73.2z M43.4,38.2h42
			c4.4,0,7.9,3.6,7.9,7.9v9.2c0,4.4-3.6,7.9-7.9,7.9h-42c-4.4,0-7.9-3.6-7.9-7.9v-9.2C35.4,41.8,39,38.2,43.4,38.2L43.4,38.2z
			 M15.6,38.2h9.2c4.4,0,7.9,3.6,7.9,7.9v9.2c0,4.4-3.6,7.9-7.9,7.9h-9.2c-4.4,0-7.9-3.6-7.9-7.9v-9.2C7.6,41.8,11.2,38.2,15.6,38.2
			z M24.8,44h-9.2c-1.2,0-2.1,1-2.1,2.1v9.2c0,1.2,1,2.2,2.1,2.2h9.2c1.2,0,2.1-1,2.1-2.2v-9.2C26.9,45,26,44,24.8,44z M85.4,44h-42
			c-1.2,0-2.1,1-2.1,2.1v9.2c0,1.2,1,2.2,2.1,2.2h42c1.2,0,2.1-1,2.1-2.2v-9.2C87.5,45,86.6,44,85.4,44z M15.6,9h9.2
			c4.4,0,7.9,3.6,7.9,7.9v9.2c0,4.4-3.6,7.9-7.9,7.9h-9.2c-4.4,0-7.9-3.6-7.9-7.9v-9.2C7.6,12.6,11.2,9,15.6,9L15.6,9z M24.8,14.8
			h-9.2c-1.2,0-2.1,1-2.1,2.1v9.2c0,1.2,1,2.2,2.1,2.2h9.2c1.2,0,2.1-1,2.1-2.2v-9.2C26.9,15.7,26,14.8,24.8,14.8z M85.4,14.8h-42
			c-1.2,0-2.1,1-2.1,2.1v9.2c0,1.2,1,2.2,2.1,2.2h42c1.2,0,2.1-1,2.1-2.2v-9.2C87.5,15.7,86.6,14.8,85.4,14.8z"/>
	</g>
</g>
</svg>
