<?xml version="1.0" encoding="utf-8"?>
<!-- Generator: Adobe Illustrator 21.1.0, SVG Export Plug-In . SVG Version: 6.00 Build 0)  -->
<svg fill="#900968" version="1.1" id="Layer_1" xmlns="http://www.w3.org/2000/svg" xmlns:xlink="http://www.w3.org/1999/xlink" x="0px" y="0px"
	 viewBox="0 0 100 100" style="enable-background:new 0 0 100 100;" xml:space="preserve">
<g>
	<g>
		<path d="M87.2,30.3L65.7,8.8C65.2,8.3,64.5,8,63.8,8h-43c-1.5,0-2.7,1.2-2.7,2.7v24.2h5.4V13.4h37.6v18.8c0,1.5,1.2,2.7,2.7,2.7
			h18.8v53.8H23.5V61.8h-5.4v29.6c0,1.5,1.2,2.7,2.7,2.7h64.5c1.5,0,2.7-1.2,2.7-2.7V32.2C88,31.5,87.7,30.8,87.2,30.3z M66.5,29.5
			V17.2l12.3,12.3H66.5z"/>
	</g>
</g>
<g>
	<g>
		<path d="M67.7,45.9l-10.8-5.4c-0.4-0.2-0.8-0.3-1.2-0.3h-43c-1.5,0-2.7,1.2-2.7,2.7v10.8c0,1.5,1.2,2.7,2.7,2.7h43
			c0.4,0,0.8-0.1,1.2-0.3l10.8-5.4c0.9-0.5,1.5-1.4,1.5-2.4S68.6,46.4,67.7,45.9z M20.8,51h-5.4v-5.4h5.4V51z M55.1,51H26.2v-5.4
			h28.9l5.4,2.7L55.1,51z"/>
	</g>
</g>
<g>
	<g>
		<rect x="28.8" y="61.8" width="48.4" height="5.4"/>
	</g>
</g>
<g>
	<g>
		<rect x="39.6" y="72.5" width="37.6" height="5.4"/>
	</g>
</g>
<g>
	<g>
		<rect x="28.8" y="72.5" width="5.4" height="5.4"/>
	</g>
</g>
</svg>
