<svg fill="#900968" version="1.1" x="0px" y="0px" viewBox="0 0 100 100" style="enable-background:new 0 0 100 100;" xml:space="preserve">
  <g id="Layer_2">
    <path
      d="M95,32.7c0-10-12.7-17.9-28.8-17.9s-28.8,7.9-28.8,17.9v3.9c-1.2-0.1-2.3-0.2-3.5-0.2C17.7,36.4,5,44.3,5,54.3v11c0,10,12.7,17.9,28.8,17.9s28.8-7.9,28.8-17.9l0-3.8c1.1,0.1,2.3,0.1,3.5,0.1c16.2,0,28.8-7.9,28.8-17.9l0-10.4C95,33.1,95,32.9,95,32.7z M66.2,18.7c13.4,0,24.7,6.2,25,13.7l0,0.8c-0.4,7.4-11.7,13.6-25,13.6c-13.6,0-25-6.4-25-14.1C41.1,25.1,52.6,18.7,66.2,18.7z M33.8,79.3c-13.6,0-25-6.4-25-14.1v-2c4.9,5.3,14.2,8.9,25,8.9s20.1-3.5,25-8.9l0,2C58.9,72.9,47.4,79.3,33.8,79.3z M33.8,68.4c-13.6,0-25-6.4-25-14.1c0-7.6,11.5-14.1,25-14.1c1.2,0,2.3,0.1,3.5,0.2v3.3c0,7.8,7.8,14.3,18.9,16.8C52,65.1,43.5,68.4,33.8,68.4z M66.2,57.8c-13.6,0-25-6.4-25-14.1v-2c4.9,5.3,14.2,8.9,25,8.9s20.1-3.5,25-8.9l0,2C91.2,51.3,79.7,57.8,66.2,57.8z"
      />
  </g>
</svg>
