<svg fill="#900968" id="Layer_3" enable-background="new 0 0 64 64" height="512" viewBox="0 0 64 64" width="512" xmlns="http://www.w3.org/2000/svg"><g><path d="m37 52.905c-1.654 0-3 1.346-3 3s1.346 3 3 3 3-1.346 3-3-1.346-3-3-3zm0 4c-.551 0-1-.448-1-1s.449-1 1-1 1 .448 1 1-.449 1-1 1z"/><path d="m47 62.905c3.86 0 7-3.141 7-7v-11c2.206 0 4-1.794 4-4 0-1.201-.542-2.266-1.382-3 .84-.734 1.382-1.799 1.382-3s-.542-2.266-1.382-3c.84-.734 1.382-1.799 1.382-3s-.542-2.266-1.382-3c.84-.734 1.382-1.799 1.382-3 0-2.206-1.794-4-4-4v-11c0-3.859-3.14-7-7-7h-20c-3.86 0-7 3.141-7 7v13.556c-.591-.344-1.268-.556-2-.556-2.206 0-4 1.794-4 4v8.646c0 2.04-.482 4.083-1.395 5.907-1.05 2.101-1.605 4.453-1.605 6.802v4.755c0 .482-.078.961-.23 1.419-.379 1.137-1.178 2.058-2.25 2.594l-1.968.983c-.338.169-.552.515-.552.894v5c0 .553.448 1 1 1zm9-40c0 1.103-.897 2-2 2h-3c-1.103 0-2-.897-2-2s.897-2 2-2h3c1.103 0 2 .898 2 2zm-7.618 9c-.84.734-1.382 1.799-1.382 3s.542 2.266 1.382 3c-.84.734-1.382 1.799-1.382 3 0 .732.212 1.409.556 2h-21.556v-26h22v3.382c-.615.703-1 1.612-1 2.618 0 1.201.542 2.266 1.382 3-.84.734-1.382 1.799-1.382 3s.542 2.267 1.382 3zm-21.382-29h20c2.757 0 5 2.243 5 5v1h-30v-1c0-2.757 2.243-5 5-5zm-19 58v-3.382l1.416-.707c1.549-.775 2.704-2.107 3.252-3.751.22-.663.332-1.353.332-2.05v-4.755c0-2.04.482-4.083 1.395-5.907 1.05-2.101 1.605-4.454 1.605-6.802v-8.646c0-1.103.897-2 2-2s2 .897 2 2v2 29c0 1.958.81 3.728 2.111 5zm39 0h-20c-2.757 0-5-2.243-5-5v-5h30v5c0 2.757-2.243 5-5 5zm5-12h-30v-22-2-14h30v8h-1c-.347 0-.678.058-1 .142v-3.142c0-.553-.448-1-1-1h-24c-.552 0-1 .447-1 1v28c0 .553.448 1 1 1h24c.25 0 .471-.101.647-.252.425.154.876.252 1.353.252h1zm4-8c0 1.103-.897 2-2 2h-3c-1.103 0-2-.897-2-2s.897-2 2-2h3c1.103 0 2 .898 2 2zm0-6c0 1.103-.897 2-2 2h-3c-1.103 0-2-.897-2-2s.897-2 2-2h3c1.103 0 2 .898 2 2zm-5-4c-1.103 0-2-.897-2-2s.897-2 2-2h3c1.103 0 2 .897 2 2s-.897 2-2 2z"/><path d="m35 4.905h4v2h-4z"/><path d="m30 20.905h2v-2h-3c-.552 0-1 .447-1 1v3h2z"/><path d="m45 18.905h-3v2h2v2h2v-3c0-.552-.448-1-1-1z"/><path d="m30 36.905h-2v3c0 .553.448 1 1 1h3v-2h-2z"/><path d="m44 38.905h-2v2h3c.552 0 1-.447 1-1v-3h-2z"/><path d="m43 36.905v-4c0-1.654-1.346-3-3-3h-3-3c-1.654 0-3 1.346-3 3v4c0 .553.448 1 1 1h10c.552 0 1-.447 1-1zm-2-1h-8v-3c0-.552.449-1 1-1h6c.551 0 1 .448 1 1z"/><path d="m41 25.905v-2c0-2.206-1.794-4-4-4s-4 1.794-4 4v2c0 2.206 1.794 4 4 4s4-1.794 4-4zm-2 0c0 1.103-.897 2-2 2s-2-.897-2-2v-2c0-1.103.897-2 2-2s2 .897 2 2z"/></g></svg>
