<?xml version="1.0" encoding="iso-8859-1"?>
<svg fill="#900968" version="1.1" id="Layer_1" xmlns="http://www.w3.org/2000/svg" xmlns:xlink="http://www.w3.org/1999/xlink" x="0px" y="0px"
	 viewBox="0 0 100 100" style="enable-background:new 0 0 100 100;" xml:space="preserve">
<g>
	<g>
		<path d="M319.266,295.133L127.052,102.919c6.014-10.166,9.481-22.008,9.481-34.652C136.533,30.622,105.911,0,68.267,0
			S0,30.622,0,68.267s30.622,68.267,68.267,68.267c12.643,0,24.486-3.467,34.652-9.481l192.215,192.215
			c3.333,3.333,7.699,4.999,12.066,4.999s8.734-1.667,12.066-5C325.932,312.6,325.932,301.799,319.266,295.133z M92.429,92.353
			c-0.013,0.013-0.026,0.023-0.04,0.035c-0.014,0.013-0.023,0.026-0.035,0.04c-6.178,6.159-14.694,9.971-24.087,9.971
			c-18.822,0-34.133-15.311-34.133-34.133s15.311-34.133,34.133-34.133S102.4,49.444,102.4,68.267
			C102.4,77.659,98.587,86.175,92.429,92.353z"/>
	</g>
</g>
<g>
	<g>
		<path d="M319.266,22.067c-6.666-6.666-17.467-6.666-24.133,0L194.799,122.401l24.133,24.133L319.266,46.201
			C325.934,39.533,325.934,28.733,319.266,22.067z"/>
	</g>
</g>
<g>
	<g>
		<path d="M146.533,218.932L122.4,194.8l-19.481,19.482c-10.166-6.015-22.009-9.482-34.652-9.482C30.622,204.8,0,235.422,0,273.067
			c0,37.645,30.622,68.267,68.267,68.267s68.267-30.622,68.267-68.267c0-12.644-3.467-24.486-9.481-34.652L146.533,218.932z
			 M68.267,307.2c-18.822,0-34.133-15.311-34.133-34.133c0-18.822,15.311-34.133,34.133-34.133c9.392,0,17.909,3.813,24.087,9.971
			c0.013,0.013,0.023,0.026,0.035,0.04s0.026,0.023,0.04,0.035c6.159,6.178,9.971,14.694,9.971,24.087
			C102.4,291.889,87.089,307.2,68.267,307.2z"/>
	</g>
</g>
<g>
	<g>
		<path d="M494.933,170.667H243.067L343.401,271c9.677,9.667,14.999,22.522,14.999,36.2s-5.323,26.533-15,36.2
			c-9.667,9.678-22.522,15-36.2,15s-26.533-5.323-36.2-15L170.667,243.067v251.866c0,9.422,7.645,17.067,17.067,17.067h307.2
			c9.422,0,17.067-7.645,17.067-17.067v-307.2C512,178.311,504.355,170.667,494.933,170.667z M204.8,324.267
			c0-9.422,7.645-17.067,17.067-17.067c9.422,0,17.067,7.645,17.067,17.067V358.4c0,9.422-7.645,17.067-17.067,17.067
			c-9.422,0-17.067-7.645-17.067-17.067V324.267z M256,477.867h-34.133c-9.422,0-17.067-7.645-17.067-17.067v-34.133
			c0-9.422,7.645-17.067,17.067-17.067c9.422,0,17.067,7.645,17.067,17.067v17.067H256c9.422,0,17.067,7.645,17.067,17.067
			C273.067,470.222,265.422,477.867,256,477.867z M358.4,477.867h-34.133c-9.422,0-17.067-7.645-17.067-17.067
			c0-9.422,7.645-17.067,17.067-17.067H358.4c9.422,0,17.067,7.645,17.067,17.067C375.467,470.222,367.822,477.867,358.4,477.867z
			 M358.4,238.933h-34.133c-9.422,0-17.067-7.645-17.067-17.067c0-9.422,7.645-17.067,17.067-17.067H358.4
			c9.422,0,17.067,7.645,17.067,17.067C375.467,231.289,367.822,238.933,358.4,238.933z M477.867,460.8
			c0,9.422-7.645,17.067-17.067,17.067h-34.133c-9.422,0-17.067-7.645-17.067-17.067c0-9.422,7.645-17.067,17.067-17.067h17.067
			v-17.067c0-9.422,7.645-17.067,17.067-17.067c9.422,0,17.067,7.645,17.067,17.067V460.8z M477.867,358.4
			c0,9.422-7.645,17.067-17.067,17.067c-9.422,0-17.067-7.645-17.067-17.067v-34.133c0-9.422,7.645-17.067,17.067-17.067
			c9.422,0,17.067,7.645,17.067,17.067V358.4z M477.867,256c0,9.422-7.645,17.067-17.067,17.067
			c-9.422,0-17.067-7.645-17.067-17.067v-17.067h-17.067c-9.422,0-17.067-7.645-17.067-17.067c0-9.422,7.645-17.067,17.067-17.067
			H460.8c9.422,0,17.067,7.645,17.067,17.067V256z"/>
	</g>
</g>
<g>
</g>
<g>
</g>
<g>
</g>
<g>
</g>
<g>
</g>
<g>
</g>
<g>
</g>
<g>
</g>
<g>
</g>
<g>
</g>
<g>
</g>
<g>
</g>
<g>
</g>
<g>
</g>
<g>
</g>
</svg>
