<svg height="512" viewBox="0 0 256 256" width="512" xmlns="http://www.w3.org/2000/svg"><path d="m214.572 138.549a12 12 0 0 1 0-21.1 17 17 0 0 0 -10.334-31.8 12 12 0 0 1 -12.4-17.069 17 17 0 0 0 -27.053-19.655 12.005 12.005 0 0 1 -20.066-6.52 16.623 16.623 0 0 0 -16.719-13.905 16.623 16.623 0 0 0 -16.719 13.905 12.006 12.006 0 0 1 -20.067 6.52 17 17 0 0 0 -27.051 19.655 12 12 0 0 1 -12.4 17.069 17 17 0 0 0 -10.333 31.8 12 12 0 0 1 0 21.1 17 17 0 0 0 10.333 31.8 12 12 0 0 1 12.4 17.069 17 17 0 0 0 27.053 19.655 12.005 12.005 0 0 1 20.066 6.52 17 17 0 0 0 33.439 0 12 12 0 0 1 20.065-6.52 17 17 0 0 0 27.053-19.655 12 12 0 0 1 12.4-17.069 17 17 0 0 0 10.333-31.8zm3.3 18.654a11.618 11.618 0 0 1 -12.983 8.191 17 17 0 0 0 -17.568 24.179 12 12 0 0 1 -19.1 13.875 17 17 0 0 0 -28.424 9.236 12 12 0 0 1 -23.606 0 16.777 16.777 0 0 0 -11.465-13.073 17.315 17.315 0 0 0 -5.352-.859 16.778 16.778 0 0 0 -11.607 4.7 12 12 0 0 1 -19.1-13.875 17 17 0 0 0 -17.567-24.179 12 12 0 0 1 -7.295-22.451 17 17 0 0 0 0-29.886 12 12 0 0 1 7.295-22.451 17 17 0 0 0 17.575-24.183 12 12 0 0 1 19.1-13.875 17 17 0 0 0 28.425-9.236 12 12 0 0 1 23.606 0 17 17 0 0 0 28.423 9.236 12 12 0 0 1 19.1 13.875 17 17 0 0 0 17.568 24.179 12 12 0 0 1 7.294 22.451 17 17 0 0 0 0 29.886 11.614 11.614 0 0 1 5.684 14.257z" fill="#900968"/><g fill="#900968"><path d="m83.421 116.5a6.653 6.653 0 0 0 -1-3.642 7.947 7.947 0 0 0 -2.836-2.584 22.449 22.449 0 0 0 -5.046-1.9 12.379 12.379 0 0 1 -4.208-1.8 2.455 2.455 0 0 1 -1.017-2.061 2.658 2.658 0 0 1 1.159-2.264 5.946 5.946 0 0 1 3.631-.982 5.313 5.313 0 0 1 3.689 1.186 3.85 3.85 0 0 1 1.276 3.054 1.1 1.1 0 0 0 1.1 1.1h2a1.1 1.1 0 0 0 1.1-1.1 7.725 7.725 0 0 0 -1.186-4.185 7.966 7.966 0 0 0 -3.312-2.919 10.533 10.533 0 0 0 -4.67-1.015 10.218 10.218 0 0 0 -6.331 1.912 6.519 6.519 0 0 0 .191 10.635 18.4 18.4 0 0 0 5.671 2.4 13.089 13.089 0 0 1 4.613 1.95 2.94 2.94 0 0 1 -.235 4.563 6.3 6.3 0 0 1 -3.757 1 6.831 6.831 0 0 1 -4.264-1.206 3.613 3.613 0 0 1 -1.429-3.05 1.1 1.1 0 0 0 -1.1-1.1h-1.985a1.1 1.1 0 0 0 -1.1 1.1 7.522 7.522 0 0 0 1.26 4.276 8.061 8.061 0 0 0 3.627 2.883 12.6 12.6 0 0 0 4.992.976 10.55 10.55 0 0 0 6.512-1.9 6.381 6.381 0 0 0 2.655-5.327z"/><path d="m101.112 99.859a9.529 9.529 0 0 0 -6.512-2.147h-8a1.1 1.1 0 0 0 -1.1 1.1v23.493a1.1 1.1 0 0 0 1.1 1.1h1.985a1.1 1.1 0 0 0 1.1-1.1v-8.468h4.87a9.755 9.755 0 0 0 6.641-2.074 8.447 8.447 0 0 0 -.08-11.9zm-6.513 10.1h-4.918v-8.368h5.035a5.033 5.033 0 0 1 3.535 1.173 4.044 4.044 0 0 1 1.169 3.092 3.827 3.827 0 0 1 -1.155 3.014 5.34 5.34 0 0 1 -3.665 1.089z"/><path d="m106.943 123.407h14.619a1.1 1.1 0 0 0 1.1-1.1v-1.678a1.1 1.1 0 0 0 -1.1-1.1h-11.533v-7.384h9.887a1.1 1.1 0 0 0 1.1-1.1v-1.679a1.1 1.1 0 0 0 -1.1-1.1h-9.887v-6.674h11.452a1.1 1.1 0 0 0 1.1-1.1v-1.679a1.1 1.1 0 0 0 -1.1-1.1h-14.538a1.1 1.1 0 0 0 -1.1 1.1v23.493a1.1 1.1 0 0 0 1.1 1.101z"/><path d="m128.505 122.245a9.41 9.41 0 0 0 5.224 1.484 9.875 9.875 0 0 0 6.718-2.24 9.515 9.515 0 0 0 3.025-6.39 1.1 1.1 0 0 0 -1.095-1.219h-2a1.1 1.1 0 0 0 -1.092.965 6.138 6.138 0 0 1 -1.616 3.812 5.6 5.6 0 0 1 -3.939 1.193 4.865 4.865 0 0 1 -4.119-1.989 9.426 9.426 0 0 1 -1.622-5.824v-2.874a9.359 9.359 0 0 1 1.658-5.921 5.066 5.066 0 0 1 4.227-1.973c3.267 0 4.986 1.595 5.411 5.021a1.1 1.1 0 0 0 1.092.965h2a1.1 1.1 0 0 0 1.1-1.208 9.616 9.616 0 0 0 -2.887-6.33 9.511 9.511 0 0 0 -6.713-2.327 9.722 9.722 0 0 0 -5.329 1.488 9.561 9.561 0 0 0 -3.563 4.208 14.459 14.459 0 0 0 -1.2 6v3.055a14.338 14.338 0 0 0 1.215 5.936 9.649 9.649 0 0 0 3.505 4.168z"/><rect height="25.695" rx="1.101" width="4.186" x="146.537" y="97.712"/><path d="m168.2 116.807 2.171 5.88a1.1 1.1 0 0 0 1.032.72h2.065a1.1 1.1 0 0 0 1.03-1.491l-8.89-23.493a1.1 1.1 0 0 0 -1.03-.711h-1.887a1.1 1.1 0 0 0 -1.03.711l-8.891 23.493a1.1 1.1 0 0 0 1.029 1.491h2.081a1.1 1.1 0 0 0 1.033-.722l2.156-5.878zm-7.709-3.879 3.135-8.51 3.134 8.51z"/><path d="m190.525 119.528h-10.5v-20.715a1.1 1.1 0 0 0 -1.1-1.1h-2a1.1 1.1 0 0 0 -1.1 1.1v23.493a1.1 1.1 0 0 0 1.1 1.1h13.6a1.1 1.1 0 0 0 1.1-1.1v-1.678a1.1 1.1 0 0 0 -1.1-1.1z"/><path d="m94.589 133.747a9.862 9.862 0 0 0 -14.382 4.3 14.631 14.631 0 0 0 -1.238 6.147v2.421a12.885 12.885 0 0 0 2.8 8.664 9.436 9.436 0 0 0 7.482 3.327 9.9 9.9 0 0 0 5.4-1.494 9.679 9.679 0 0 0 3.614-4.247 14.726 14.726 0 0 0 1.221-6.154v-2.824a14.452 14.452 0 0 0 -1.286-5.987 9.706 9.706 0 0 0 -3.611-4.153zm-5.339 20.936a5.258 5.258 0 0 1 -4.4-2.028 9.374 9.374 0 0 1 -1.7-5.94v-2.452a9.463 9.463 0 0 1 1.7-6.046 5.805 5.805 0 0 1 8.763-.012 9.388 9.388 0 0 1 1.679 5.961v2.485a9.66 9.66 0 0 1 -1.654 6.042 5.214 5.214 0 0 1 -4.388 1.99z"/><path d="m117.939 132.593h-14.554a1.1 1.1 0 0 0 -1.1 1.1v23.493a1.1 1.1 0 0 0 1.1 1.1h1.985a1.1 1.1 0 0 0 1.1-1.1v-9.886h9.856a1.1 1.1 0 0 0 1.1-1.1v-1.678a1.1 1.1 0 0 0 -1.1-1.1h-9.856v-6.948h11.469a1.1 1.1 0 0 0 1.1-1.1v-1.678a1.1 1.1 0 0 0 -1.1-1.103z"/><path d="m136.528 132.593h-14.555a1.1 1.1 0 0 0 -1.1 1.1v23.493a1.1 1.1 0 0 0 1.1 1.1h1.985a1.1 1.1 0 0 0 1.1-1.1v-9.886h9.855a1.1 1.1 0 0 0 1.1-1.1v-1.678a1.1 1.1 0 0 0 -1.1-1.1h-9.855v-6.948h11.469a1.1 1.1 0 0 0 1.1-1.1v-1.678a1.1 1.1 0 0 0 -1.099-1.103z"/><path d="m155.18 154.409h-11.533v-7.383h9.888a1.1 1.1 0 0 0 1.1-1.1v-1.679a1.1 1.1 0 0 0 -1.1-1.1h-9.888v-6.674h11.453a1.1 1.1 0 0 0 1.1-1.1v-1.678a1.1 1.1 0 0 0 -1.1-1.1h-14.539a1.1 1.1 0 0 0 -1.1 1.1v23.493a1.1 1.1 0 0 0 1.1 1.1h14.619a1.1 1.1 0 0 0 1.1-1.1v-1.678a1.1 1.1 0 0 0 -1.1-1.101z"/><path d="m171.663 147.535a7.661 7.661 0 0 0 2.817-2.276 8.046 8.046 0 0 0 -.945-10.578 9.807 9.807 0 0 0 -6.592-2.088h-7.632a1.1 1.1 0 0 0 -1.1 1.1v23.493a1.1 1.1 0 0 0 1.1 1.1h2a1.1 1.1 0 0 0 1.1-1.1v-8.693h5.089l5.361 9.245a1.1 1.1 0 0 0 .953.549h2.113a1.1 1.1 0 0 0 1.1-1.1v-.21a1.1 1.1 0 0 0 -.151-.557zm-9.25-11.063h4.5a5.543 5.543 0 0 1 3.717 1.1 4.28 4.28 0 0 1 .034 5.913 4.55 4.55 0 0 1 -3.266 1.124h-4.982z"/></g><path d="m128 86.473a2.5 2.5 0 0 1 -2.5-2.5v-21.188a2.5 2.5 0 0 1 5 0v21.188a2.5 2.5 0 0 1 -2.5 2.5z" fill="fill"/><path d="m128 197.641a2.5 2.5 0 0 1 -2.5-2.5v-23.114a2.5 2.5 0 0 1 5 0v23.114a2.5 2.5 0 0 1 -2.5 2.5z" fill="fill"/><path d="m156.83 90.783a2.5 2.5 0 0 1 -2.021-3.969l15.621-21.52a2.5 2.5 0 0 1 4.047 2.937l-15.622 21.52a2.5 2.5 0 0 1 -2.025 1.032z" fill="fill"/><path d="m83.545 191.737a2.5 2.5 0 0 1 -2.021-3.968l15.936-21.955a2.5 2.5 0 0 1 4.046 2.938l-15.936 21.954a2.5 2.5 0 0 1 -2.025 1.031z" fill="fill"/><path d="m99.17 90.783a2.493 2.493 0 0 1 -2.024-1.032l-15.622-21.52a2.5 2.5 0 0 1 4.046-2.937l15.621 21.52a2.5 2.5 0 0 1 -2.021 3.969z" fill="fill"/><path d="m172.455 191.737a2.5 2.5 0 0 1 -2.025-1.031l-15.937-21.954a2.5 2.5 0 0 1 4.047-2.938l15.937 21.955a2.5 2.5 0 0 1 -2.022 3.968z" fill="fill"/><path d="m128 57.306a2.5 2.5 0 0 1 -2.5-2.5v-12.933a2.5 2.5 0 1 1 5 0v12.933a2.5 2.5 0 0 1 -2.5 2.5z" fill="fill"/><path d="m128 214.7a2.5 2.5 0 0 1 -2.5-2.5v-6.879a2.5 2.5 0 0 1 5 0v6.879a2.5 2.5 0 0 1 -2.5 2.5z" fill="fill"/></svg>


