<?xml version="1.0" encoding="utf-8"?>
<!-- Generator: Adobe Illustrator 21.1.0, SVG Export Plug-In . SVG Version: 6.00 Build 0)  -->
<svg fill="#900968" version="1.1" xmlns="http://www.w3.org/2000/svg" xmlns:xlink="http://www.w3.org/1999/xlink" x="0px" y="0px"
	 viewBox="0 0 100 100" style="enable-background:new 0 0 100 100;" xml:space="preserve">
<style type="text/css">
	.st0{display:none;}
	.st1{display:inline;}
</style>
<g id="Layer_1" class="st0">
	<g class="st1">
		<g>
			<path d="M73.6,40.4c4.3-3.6,7-8.9,7-15C80.6,14.7,71.9,6,61.2,6s-19.4,8.7-19.4,19.4c0,1.4,0.2,2.8,0.4,4.1
				c-1.1-0.2-2.2-0.3-3.4-0.3c-10.7,0-19.4,8.7-19.4,19.4c0,6,2.7,11.4,7,15c-12,4.9-20.5,16.7-20.5,30.5h6.9c0-14.4,11.7-26,26-26
				c10.7,0,19.4-8.7,19.4-19.4c0-1.4-0.2-2.8-0.4-4.1c1.1,0.2,2.2,0.3,3.4,0.3c8.5,0,16,4.1,20.7,10.3l4.7-5.2
				C83.2,45.8,78.7,42.5,73.6,40.4z M38.8,61.2c-6.9,0-12.5-5.6-12.5-12.5s5.6-12.5,12.5-12.5s12.5,5.6,12.5,12.5
				S45.7,61.2,38.8,61.2z M61.2,38c-6.9,0-12.5-5.6-12.5-12.5s5.6-12.5,12.5-12.5s12.5,5.6,12.5,12.5C73.8,32.3,68.1,38,61.2,38z"/>
		</g>
	</g>
	<g class="st1">
		<g>
			<polygon points="89,57.7 65,84.3 51.5,71.5 46.8,76.5 65.4,94.2 94.1,62.3 			"/>
		</g>
	</g>
</g>
<g id="Layer_2" class="st0">
	<path class="st1" d="M94,24.2v-5.2H6v5.2h10.5v5.2H6v51.6h88V29.4H83.5v-5.2H94z M42.3,29.4v-5.2h15.5v5.2H42.3z M21.6,24.2h15.5
		v5.2H21.6V24.2z M88.8,75.8H11.2V34.5h77.7V75.8z M78.4,29.4H62.9v-5.2h15.5V29.4z"/>
	<path class="st1" d="M52.9,70.6l-14.5-29L32,54.5l-3.9-7.7L16.2,70.6H52.9z M24.5,65.5l3.6-7.1l3.6,7.1H24.5z M34.8,60.3l3.6-7.1
		l6.1,12.3h-7.1L34.8,60.3z"/>
	<path class="st1" d="M57.7,65.5h25.8v5.2H57.7V65.5z"/>
	<path class="st1" d="M57.7,55.2h25.8v5.2H57.7V55.2z"/>
	<path class="st1" d="M57.7,44.8h25.8V50H57.7V44.8z"/>
</g>
<g id="Layer_3">
	<path d="M82.3,50.3h-24c-0.9,0-1.6,0.7-1.6,1.6c0,0.9,0.7,1.6,1.6,1.6h24c0.9,0,1.6-0.7,1.6-1.6C83.9,51,83.1,50.3,82.3,50.3z"/>
	<path d="M82.3,68.6h-24c-0.9,0-1.6,0.7-1.6,1.6c0,0.9,0.7,1.6,1.6,1.6h24c0.9,0,1.6-0.7,1.6-1.6C83.9,69.4,83.1,68.6,82.3,68.6z"/>
	<path d="M33.5,71.8h18.3c0.9,0,1.6-0.7,1.6-1.6V51.9c0-0.9-0.7-1.6-1.6-1.6H33.5c-0.9,0-1.6,0.7-1.6,1.6v18.3
		C31.9,71.1,32.6,71.8,33.5,71.8z M35.1,53.5h15.2v15.2H35.1V53.5z"/>
	<path d="M89.3,14H22.8c-0.9,0-1.6,0.7-1.6,1.6v9.1h-9.5c-0.9,0-1.6,0.7-1.6,1.6v51.6c0,3.9,3.2,7.2,7.2,7.2h66.5
		c3.9,0,7.2-3.2,7.2-7.2V15.6C90.9,14.7,90.2,14,89.3,14z M21.2,43.7h-2.4v-5.2h2.4L21.2,43.7L21.2,43.7z M13.2,77.9V27.9h8v7.5h-4
		c-0.9,0-1.6,0.7-1.6,1.6v8.4c0,0.9,0.7,1.6,1.6,1.6h4v6h-4c-0.9,0-1.6,0.7-1.6,1.6s0.7,1.6,1.6,1.6h4v6h-4c-0.9,0-1.6,0.7-1.6,1.6
		c0,0.9,0.7,1.6,1.6,1.6h4v6h-4c-0.9,0-1.6,0.7-1.6,1.6c0,0.9,0.7,1.6,1.6,1.6h4v3.5c0,2.2-1.8,4-4,4C15,81.9,13.2,80.1,13.2,77.9z
		 M87.8,77.9c0,2.2-1.8,4-4,4H23.2c0.8-1.2,1.2-2.6,1.2-4V17.2h63.4V77.9z"/>
	<path d="M39.6,34.4h33.1c0.9,0,1.6-0.7,1.6-1.6v-8.4c0-0.9-0.7-1.6-1.6-1.6H39.6c-0.9,0-1.6,0.7-1.6,1.6v8.4
		C38,33.7,38.7,34.4,39.6,34.4z M41.2,26h29.9v5.2H41.2V26z"/>
	<path d="M33.5,43.9h6.1c0.9,0,1.6-0.7,1.6-1.6c0-0.9-0.7-1.6-1.6-1.6h-6.1c-0.9,0-1.6,0.7-1.6,1.6C31.9,43.2,32.6,43.9,33.5,43.9z"
		/>
	<path d="M47.3,41.5c-0.4-0.6-1.1-0.8-1.7-0.7c-0.6,0.2-1.1,0.7-1.2,1.4c-0.1,0.6,0.3,1.3,0.9,1.6c0.6,0.3,1.3,0.2,1.8-0.3
		C47.6,43,47.7,42.1,47.3,41.5z"/>
	<path d="M50.7,42.3c0,0.9,0.7,1.6,1.6,1.6h30c0.9,0,1.6-0.7,1.6-1.6c0-0.9-0.7-1.6-1.6-1.6h-30C51.4,40.8,50.7,41.5,50.7,42.3z"/>
	<path d="M81.7,62.5c0.6,0.3,1.3,0.1,1.8-0.4c0.4-0.5,0.5-1.2,0.2-1.8c-0.3-0.6-1-0.9-1.7-0.8c-0.7,0.1-1.2,0.6-1.3,1.3
		C80.6,61.5,81,62.2,81.7,62.5z"/>
	<path d="M58.3,62.6H76c0.9,0,1.6-0.7,1.6-1.6c0-0.9-0.7-1.6-1.6-1.6H58.3c-0.9,0-1.6,0.7-1.6,1.6C56.7,61.9,57.4,62.6,58.3,62.6z"
		/>
</g>
</svg>
