<?xml version="1.0" ?>
<svg 
fill="#900968"
height="512"
width="512"
data-name="Layer 1"
 id="Layer_1" 
 viewBox="0 0 512 512" 
 xmlns="http://www.w3.org/2000/svg">
 <title/><g id="XzrnA0.tif">
 <path d="M265.19,88.4H377.42V434H183.74V88.4h61.58c-1.75.31-3.5.79-5.27.93Q213,91.45,185.9,93.48l-.66,1.9a42.29,42.29,0,0,0,3.18,5q12.21,14.28,24.58,28.42a23.44,23.44,0,0,0,4.57,4.5c1.12.72,2.91.39,4.41.53-.14-1.47.28-3.41-.5-4.35-6.1-7.35-12.38-14.55-18.7-21.71-2.8-3.17-5.82-6.14-9.07-9.54,36-1,71.36-6.19,107.17-.92-4.39,6.14-9,12.17-13.13,18.5-2.31,3.52-5.19,4.85-9.23,5.53C262.9,124,247.34,127,231.78,130c-2.05.4-3.95,1.55-5.92,2.36l.32,2c2.06.15,4.19.72,6.18.4,15.65-2.56,31.21-5.67,46.92-7.79,6.5-.87,10.6-3.41,14-9,4.93-8,10.83-15.41,16.19-23.15a8,8,0,0,0,1.15-4c0-.42-1.49-1.31-2.29-1.3-6.19.09-12.39.67-18.57.48C281.57,89.76,273.38,89,265.19,88.4Zm19,76-2.06.5c0,2.05-.08,4.11,0,6.15,1,20.81,2.12,41.61,3,62.41.63,14.71-.27,29.59,1.66,44.11,4.14,31.22,6.56,62.74,13.82,92.09-17.21,18.83-33.91,37.08-50.78,55.53-18.45-13.91-34-31.39-47.66-50.6-.79-1.11-.69-3.14-.48-4.67q5.88-42.75,11.89-85.49c3.24-23.07,6.24-46.17,9.85-69.19,2.25-14.35,5.49-28.55,8.1-42.86.39-2.12-.27-4.43-.45-6.65l-1.88-.18a32.78,32.78,0,0,0-2,5c-1.29,5.8-2.42,11.65-3.55,17.49-3.77,19.47-8.31,38.83-11.09,58.44-5.55,39.12-10.12,78.38-15.15,117.58-.22,1.7-.59,3.75-1.67,4.91-2.33,2.52-1.16,9,2.09,10.59a11.33,11.33,0,0,1,4,3.11c11.92,15.53,24.91,30,40.07,42.5,2.55,2.1,4.94,4.47,7.73,6.19,1,.63,3.7.31,4.4-.56,2.37-3,3.76-6.72,6.28-9.48,13.79-15.18,27.92-30.05,41.64-45.29,2.08-2.31,4-6.2,3.64-9-2.35-16.5-5.65-32.87-8.2-49.35-2.47-16-5.28-32-6.37-48.17-1.41-21.11-1.05-42.33-1.9-63.48-.47-11.88-1.78-23.74-2.9-35.58C286.05,168.41,284.91,166.43,284.21,164.41Zm65,137.82c9.05-1,15.94-1.59,22.8-2.48,3.74-.48,4.82-3.19,3.29-6.71a10.42,10.42,0,0,1-.79-4.71c.45-6.26,1-12.53,1.74-18.76.65-5.22-.6-9.32-5.13-12.47-5.71-4-11.14-8.32-16.72-12.47-17.21-12.8-33.1-26.85-45.25-44.85-4.4-6.53-10.28-12.07-15.66-17.9-.75-.81-2.5-.71-3.79-1-.14,1.38-.8,3-.32,4.07a21.76,21.76,0,0,0,3.51,4.75c4.21,5.1,8.86,9.9,12.61,15.32a156.1,156.1,0,0,0,30.46,33.15c10.55,8.52,21.42,16.66,32,25.17a7.14,7.14,0,0,1,2.45,5.11c-.46,7.07-1.29,14.14-2.35,21.15-.23,1.49-1.75,3.62-3.07,4-4.61,1.24-9.47,1.54-14.08,2.76-2.55.66-3.76,0-5.35-1.86q-22.11-25.49-44.43-50.81c-1.65-1.88-3.71-4.27-6-1.61-.8.91.05,4.32,1.21,5.7,4.23,5.08,9,9.69,13.39,14.65,10.42,11.76,20.56,23.78,31.23,35.31C343.3,300.28,347.43,301.31,349.18,302.23ZM276,263l-1.76-.94c-3.61,5.25-7.4,10.38-10.8,15.75q-24.06,37.91-47.91,75.93c-3.33,5.32-6.34,10.86-9.15,16.47-.67,1.35,0,3.41.11,5.14,1.28-1,3-1.72,3.78-3,5-8.14,9.8-16.45,14.81-24.62q24-39.12,48-78.2A52.45,52.45,0,0,0,276,263Zm-62.75,49.9,2.7,1.19Q247,262.63,275,209.36l-2.25-1.46c-3.36,4.94-7.07,9.67-10,14.84-10.34,18.09-20.4,36.33-30.58,54.5-5.58,10-11.25,19.86-16.77,29.85A37.87,37.87,0,0,0,213.24,312.93Zm71-7-1.75-1.14c-2.48,3-5.34,5.68-7.38,8.92-10.84,17.19-21.51,34.48-32.18,51.78-4.94,8-9.83,16.07-14.49,24.25-.68,1.2,0,3.19.09,4.82,1.42-.67,3.48-.94,4.16-2.05q24.75-40.64,49.2-81.46A50.54,50.54,0,0,0,284.2,306ZM216,156.52l-.29,1.86a32,32,0,0,0,4.45,2.65c11.69,4.67,24,7.05,36.36,5.24,14.79-2.17,29.32-6.14,43.89-9.6,1.53-.37,2.62-2.58,3.92-3.93-1.84-.48-3.85-1.68-5.5-1.3-7.06,1.65-14.07,3.59-21,5.73a91.58,91.58,0,0,1-57-.58C219.39,156.1,217.62,156.52,216,156.52Zm51.69,16.23-1.48-.91c-1.42,1.19-3.14,2.17-4.23,3.62q-18.54,24.72-36.82,49.62c-.66.91.08,2.84.17,4.29,1.43-.37,3.44-.27,4.21-1.2,2.4-2.9,4.26-6.25,6.48-9.32,9.88-13.6,19.86-27.14,29.67-40.78C266.75,176.58,267,174.54,267.68,172.75Zm18,178.3-1.57-.95c-1.37,1.41-3.05,2.63-4,4.27q-13.33,22-26.43,44.15a18.19,18.19,0,0,0-2.54,5.86c-.26,1.45.69,3.12,1.1,4.69,1.34-.88,3.19-1.44,3.92-2.67,2.25-3.83,3.92-8,6.1-11.86,7-12.35,14.12-24.6,21.08-37C284.43,355.59,284.91,353.24,285.69,351.05Z" fill="#fff"/><path d="M265.19,88.4c8.19.56,16.38,1.36,24.58,1.6,6.18.19,12.38-.39,18.57-.48.8,0,2.31.88,2.29,1.3a8,8,0,0,1-1.15,4c-5.36,7.74-11.26,15.15-16.19,23.15-3.41,5.54-7.51,8.08-14,9-15.71,2.12-31.27,5.23-46.92,7.79-2,.32-4.12-.25-6.18-.4l-.32-2c2-.81,3.87-2,5.92-2.36,15.56-3,31.12-6,46.74-8.67,4-.68,6.92-2,9.23-5.53,4.14-6.33,8.74-12.36,13.13-18.5-35.81-5.27-71.19,0-107.17.92,3.25,3.4,6.27,6.37,9.07,9.54,6.32,7.16,12.6,14.36,18.7,21.71.78.94.36,2.88.5,4.35-1.5-.14-3.29.19-4.41-.53a23.44,23.44,0,0,1-4.57-4.5q-12.34-14.17-24.58-28.42a42.29,42.29,0,0,1-3.18-5l.66-1.9q27.07-2.07,54.15-4.15c1.77-.14,3.52-.62,5.27-.93Z"/><path d="M284.21,164.41c.7,2,1.84,4,2,6.07,1.12,11.84,2.43,23.7,2.9,35.58.85,21.15.49,42.37,1.9,63.48,1.09,16.13,3.9,32.17,6.37,48.17,2.55,16.48,5.85,32.85,8.2,49.35.41,2.82-1.56,6.71-3.64,9-13.72,15.24-27.85,30.11-41.64,45.29-2.52,2.76-3.91,6.53-6.28,9.48-.7.87-3.38,1.19-4.4.56-2.79-1.72-5.18-4.09-7.73-6.19-15.16-12.46-28.15-27-40.07-42.5a11.33,11.33,0,0,0-4-3.11c-3.25-1.58-4.42-8.07-2.09-10.59,1.08-1.16,1.45-3.21,1.67-4.91,5-39.2,9.6-78.46,15.15-117.58,2.78-19.61,7.32-39,11.09-58.44,1.13-5.84,2.26-11.69,3.55-17.49a32.78,32.78,0,0,1,2-5l1.88.18c.18,2.22.84,4.53.45,6.65-2.61,14.31-5.85,28.51-8.1,42.86-3.61,23-6.61,46.12-9.85,69.19q-6,42.75-11.89,85.49c-.21,1.53-.31,3.56.48,4.67,13.68,19.21,29.21,36.69,47.66,50.6,16.87-18.45,33.57-36.7,50.78-55.53-7.26-29.35-9.68-60.87-13.82-92.09-1.93-14.52-1-29.4-1.66-44.11-.9-20.8-2-41.6-3-62.41-.1-2,0-4.1,0-6.15Z"/><path d="M349.18,302.23c-1.75-.92-5.88-2-8.29-4.56-10.67-11.53-20.81-23.55-31.23-35.31-4.39-5-9.16-9.57-13.39-14.65-1.16-1.38-2-4.79-1.21-5.7,2.32-2.66,4.38-.27,6,1.61q22.26,25.36,44.43,50.81c1.59,1.82,2.8,2.52,5.35,1.86,4.61-1.22,9.47-1.52,14.08-2.76,1.32-.35,2.84-2.48,3.07-4,1.06-7,1.89-14.08,2.35-21.15a7.14,7.14,0,0,0-2.45-5.11c-10.57-8.51-21.44-16.65-32-25.17A156.1,156.1,0,0,1,305.47,205c-3.75-5.42-8.4-10.22-12.61-15.32a21.76,21.76,0,0,1-3.51-4.75c-.48-1.1.18-2.69.32-4.07,1.29.33,3,.23,3.79,1,5.38,5.83,11.26,11.37,15.66,17.9,12.15,18,28,32.05,45.25,44.85,5.58,4.15,11,8.51,16.72,12.47,4.53,3.15,5.78,7.25,5.13,12.47-.77,6.23-1.29,12.5-1.74,18.76a10.42,10.42,0,0,0,.79,4.71c1.53,3.52.45,6.23-3.29,6.71C365.12,300.64,358.23,301.27,349.18,302.23Z"/><path d="M276,263a52.45,52.45,0,0,1-2.93,6.52q-23.94,39.13-48,78.2c-5,8.17-9.77,16.48-14.81,24.62-.8,1.29-2.5,2-3.78,3-.08-1.73-.78-3.79-.11-5.14,2.81-5.61,5.82-11.15,9.15-16.47q23.83-38,47.91-75.93c3.4-5.37,7.19-10.5,10.8-15.75Z"/><path d="M213.24,312.93a37.87,37.87,0,0,1,2.11-5.84c5.52-10,11.19-19.89,16.77-29.85,10.18-18.17,20.24-36.41,30.58-54.5,2.95-5.17,6.66-9.9,10-14.84l2.25,1.46q-28,53.2-59,104.76Z"/><path d="M284.2,306a50.54,50.54,0,0,1-2.35,5.12q-24.51,40.79-49.2,81.46c-.68,1.11-2.74,1.38-4.16,2.05-.06-1.63-.77-3.62-.09-4.82,4.66-8.18,9.55-16.23,14.49-24.25,10.67-17.3,21.34-34.59,32.18-51.78,2-3.24,4.9-6,7.38-8.92Z"/><path d="M216,156.52c1.63,0,3.4-.42,4.87.07a91.58,91.58,0,0,0,57,.58c6.93-2.14,13.94-4.08,21-5.73,1.65-.38,3.66.82,5.5,1.3-1.3,1.35-2.39,3.56-3.92,3.93-14.57,3.46-29.1,7.43-43.89,9.6-12.31,1.81-24.67-.57-36.36-5.24a32,32,0,0,1-4.45-2.65Z"/><path d="M267.68,172.75c-.65,1.79-.93,3.83-2,5.32-9.81,13.64-19.79,27.18-29.67,40.78-2.22,3.07-4.08,6.42-6.48,9.32-.77.93-2.78.83-4.21,1.2-.09-1.45-.83-3.38-.17-4.29q18.24-24.93,36.82-49.62c1.09-1.45,2.81-2.43,4.23-3.62Z"/><path d="M285.69,351.05c-.78,2.19-1.26,4.54-2.38,6.53-7,12.36-14.11,24.61-21.08,37-2.18,3.87-3.85,8-6.1,11.86-.73,1.23-2.58,1.79-3.92,2.67-.41-1.57-1.36-3.24-1.1-4.69a18.19,18.19,0,0,1,2.54-5.86q13.12-22.12,26.43-44.15c1-1.64,2.67-2.86,4-4.27Z"/></g></svg>