<svg fill="#900968" version="1.1" x="0px" y="0px" viewBox="0 0 100 100" style="enable-background:new 0 0 100 100;"
        xml:space="preserve">
        <g id="Layer_6">
          <g>
            <g>
              <path
                d="M46.5,41.6c-2.4-2.4-6.3-2.4-8.7,0c-2.4,2.4-2.4,6.3,0,8.7c1.2,1.2,2.8,1.8,4.3,1.8c1.6,0,3.1-0.6,4.3-1.8 C48.9,47.9,48.9,44,46.5,41.6z M43.6,47.4c-0.8,0.8-2.1,0.8-2.9,0c-0.8-0.8-0.8-2.1,0-2.9c0.8-0.8,2.1-0.8,2.9,0 C44.4,45.3,44.4,46.6,43.6,47.4z" />
            </g>
          </g>
          <g>
            <g>
              <path
                d="M49.4,61.9c-2.4-2.4-6.3-2.4-8.7,0c-2.4,2.4-2.4,6.3,0,8.7c2.4,2.4,6.3,2.4,8.7,0C51.8,68.2,51.8,64.3,49.4,61.9z M46.5,67.7c-0.8,0.8-2.1,0.8-2.9,0c-0.8-0.8-0.8-2.1,0-2.9c0.8-0.8,2.1-0.8,2.9,0C47.3,65.6,47.3,66.9,46.5,67.7z" />
            </g>
          </g>
          <g>
            <g>
              <path
                d="M58.6,54.4c-0.1-1.1-1.1-1.9-2.3-1.8l-26.1,2.9c-1.1,0.1-1.9,1.1-1.8,2.3c0.1,1.1,1.1,1.9,2.3,1.8l26.1-2.9 C58,56.6,58.8,55.5,58.6,54.4z" />
            </g>
          </g>
          <g>
            <g>
              <path
                d="M64.1,30l-2.9-2.9c-0.8-0.8-2.1-0.8-2.9,0s-0.8,2.1,0,2.9l2.9,2.9c0.8,0.8,2.1,0.8,2.9,0C64.9,32.1,64.9,30.8,64.1,30z" />
            </g>
          </g>
          <g>
            <g>
              <path
                d="M72.7,38.7l-2.9-2.9c-0.8-0.8-2.1-0.8-2.9,0c-0.8,0.8-0.8,2.1,0,2.9l2.9,2.9c0.8,0.8,2.1,0.8,2.9,0 C73.5,40.8,73.5,39.5,72.7,38.7z" />
            </g>
          </g>
          <g>
            <g>
              <path
                d="M83.2,39.8l-3.3-3.3c2.3-4.7,1.5-10.4-2.3-14.2c-3.8-3.8-9.5-4.6-14.2-2.3l-3.1-3.1c-2.4-2.4-6.3-2.4-8.7,0L16.8,51.6 c-2.4,2.4-2.4,6.3,0,8.7l3.2,3.2c-2.1,4.7-1.1,10.2,2.5,13.8c3.6,3.6,9.2,4.6,13.9,2.5l3.5,3.4c2.4,2.3,6.3,2.3,8.6-0.1 c4.6-4.6,31.7-31.7,31.9-31.9l2.8-2.8C85.6,46.1,85.6,42.2,83.2,39.8z M45.6,80.3c-0.8,0.8-2.1,0.8-2.9,0l-4.6-4.5c0,0,0,0,0,0 c-1.2-1.1-2.5-0.8-3.2,0.1c-3.1,1.6-7,1-9.5-1.5c-2.7-2.7-3.2-7-1.1-10.2c0.5-0.8,0.4-1.9-0.3-2.5l-4.3-4.3 c-0.8-0.8-0.8-2.1,0-2.9l21.8-21.8l25.9,25.9L45.6,80.3z M80.3,45.6L79,46.9l-1.4-1.4c-0.8-0.8-2.1-0.8-2.9,0 c-0.8,0.8-0.8,2.1,0,2.9l1.4,1.4l-5.8,5.8L44.4,29.8l5.8-5.8l1.2,1.2c0.8,0.8,2.1,0.8,2.9,0c0.8-0.8,0.8-2.1,0-2.9l-1.2-1.2 l1.3-1.3c0.8-0.8,2.1-0.8,2.9,0l4.3,4.3c0.7,0.7,1.8,0.8,2.6,0.2c3.2-2.2,7.6-1.8,10.4,1c2.8,2.8,3.2,7.2,1,10.4 c-0.6,0.8-0.5,1.9,0.2,2.6l4.5,4.5C81.1,43.5,81.1,44.8,80.3,45.6z" />
            </g>
          </g>
        </g>
      </svg>
