 <svg fill="#900968" version="1.1" x="0px" y="0px" viewBox="0 0 100 100" style="enable-background:new 0 0 100 100;"
        xml:space="preserve">
        <g id="Layer_8">
          <path
            d="M88.7,41h-5c-0.8-3-1.9-5.8-3.5-8.4l3.6-3.6c0.5-0.5,0.5-1.3,0-1.8l-11-11c-0.5-0.5-1.3-0.5-1.8,0l-3.6,3.6 c-2.6-1.5-5.4-2.7-8.4-3.5v-5c0-0.8-0.5-1.3-1.3-1.3H42.3c-0.8,0-1.3,0.5-1.3,1.3v5c-3,0.8-5.8,1.9-8.4,3.5L29,16.2 c-0.5-0.5-1.3-0.5-1.8,0l-11,11c-0.5,0.5-0.5,1.3,0,1.8l3.6,3.6c-1.5,2.6-2.7,5.4-3.5,8.4h-5c-0.8,0-1.3,0.5-1.3,1.3v15.5 c0,0.8,0.5,1.3,1.3,1.3h5c0.8,3,1.9,5.8,3.5,8.4L16.2,71c-0.5,0.5-0.5,1.3,0,1.8l11,11c0.5,0.5,1.3,0.5,1.8,0l3.6-3.6 c2.6,1.5,5.4,2.7,8.4,3.5v5c0,0.8,0.5,1.3,1.3,1.3h15.5c0.8,0,1.3-0.5,1.3-1.3v-5c3-0.8,5.8-1.9,8.4-3.5l3.6,3.6 c0.5,0.5,1.3,0.5,1.8,0l11-11c0.5-0.5,0.5-1.3,0-1.8l-3.6-3.6c1.5-2.6,2.7-5.4,3.5-8.4h5c0.8,0,1.3-0.5,1.3-1.3V42.3 C90,41.5,89.5,41,88.7,41z M87.4,56.5h-4.8c-0.6,0-1.2,0.4-1.3,1c-0.8,3.4-2.1,6.6-3.9,9.4c-0.3,0.5-0.3,1.2,0.1,1.5l3.4,3.5l-9,9 l-3.4-3.4c-0.4-0.4-1-0.5-1.5-0.1c-3,1.8-6.1,3.1-9.5,3.9c-0.6,0.1-1,0.6-1,1.3v4.8H43.5v-4.8c0-0.6-0.4-1.2-1-1.3 c-3.4-0.8-6.6-2.1-9.5-3.9c-0.5-0.3-1.2-0.3-1.5,0.1L28.1,81l-9-9l3.4-3.4c0.4-0.4,0.5-1,0.1-1.5c-1.8-3-3.1-6.1-3.9-9.4 c-0.1-0.6-0.6-1-1.3-1h-4.8v-13h4.8c0.6,0,1.2-0.4,1.3-1c0.8-3.4,2.1-6.6,3.9-9.4c0.3-0.5,0.3-1.2-0.1-1.5L19,28.1l9-9l3.4,3.4 c0.4,0.4,1,0.5,1.5,0.1c3-1.8,6.1-3.1,9.5-3.9c0.6-0.1,1-0.6,1-1.3v-4.8h12.9v4.8c0,0.6,0.4,1.2,1,1.3c3.4,0.8,6.6,2.1,9.5,3.9 c0.5,0.3,1.2,0.3,1.5-0.1l3.4-3.4l9,9l-3.4,3.4c-0.4,0.4-0.5,1-0.1,1.5c1.8,3,3.1,6.1,3.9,9.4c0.1,0.6,0.6,1,1.3,1h4.8V56.5z M75.8,50c0,7.2-3,13.8-7.9,18.6c-2.8-7.1-9.8-12.1-17.9-12.1c5.7,0,10.3-4.6,10.3-10.3S55.7,35.8,50,35.8s-10.3,4.6-10.3,10.3 S44.3,56.5,50,56.5c-8.1,0-15.1,5-17.9,12.1c-4.9-4.8-7.9-11.4-7.9-18.6c0-14.2,11.6-25.8,25.8-25.8S75.8,35.8,75.8,50z"
             />
        </g>
</svg>