<?xml version="1.0" encoding="utf-8"?>
<!-- Generator: Adobe Illustrator 24.0.1, SVG Export Plug-In . SVG Version: 6.00 Build 0)  -->
<svg fill="#900968" version="1.1" id="Layer_1" xmlns="http://www.w3.org/2000/svg" xmlns:xlink="http://www.w3.org/1999/xlink" x="0px" y="0px"
	 viewBox="0 0 100 100" style="enable-background:new 0 0 100 100;" xml:space="preserve">
<g transform="translate(0,-952.36218)">
	<path d="M7.3,958.1c-1,0.1-1.8,1-1.8,2v84c0,1.1,0.9,2,2,2h84c1.1,0,2-0.9,2-2v-84c0-1.1-0.9-2-2-2h-84
		C7.4,958.1,7.4,958.1,7.3,958.1z M9.5,962.1h80v80h-80V962.1z M25.5,966.1c-6.6,0-12,5.4-12,12s5.4,12,12,12s12-5.4,12-12
		S32.1,966.1,25.5,966.1z M41.3,966.1c-1.1,0.1-2,1-1.9,2.1s1,2,2.1,1.9h42c1.1,0,2-0.9,2-2c0-1.1-0.9-2-2-2c0,0,0,0-0.1,0h-42
		C41.4,966.1,41.4,966.1,41.3,966.1L41.3,966.1z M25.5,970.1c4.4,0,8,3.6,8,8c0,4.4-3.6,8-8,8s-8-3.6-8-8
		C17.5,973.6,21,970.1,25.5,970.1z M41.3,976.1c-1.1,0-2,1-1.9,2.1c0,1.1,1,2,2.1,1.9c0,0,0,0,0,0h42c1.1,0,2-0.9,2-2
		c0-1.1-0.9-2-2-2c0,0,0,0-0.1,0h-42C41.4,976.1,41.4,976.1,41.3,976.1z M41.3,986.1c-1.1,0-2,1-1.9,2.1c0,1.1,1,2,2.1,1.9
		c0,0,0,0,0,0h42c1.1,0,2-0.9,2-2c0-1.1-0.9-2-2-2c0,0,0,0-0.1,0h-42C41.4,986.1,41.4,986.1,41.3,986.1z M15.3,994.1
		c-1,0.1-1.8,1-1.8,2v40c0,1.1,0.9,2,2,2h68c1.1,0,2-0.9,2-2v-40c0-1.1-0.9-2-2-2h-68C15.4,994.1,15.4,994.1,15.3,994.1z
		 M17.5,998.1h64v36h-64V998.1z M62.4,1004c-0.5,0-1,0.3-1.3,0.7l-17.3,18.2l-5.6-8c-0.5-1-1.7-1.3-2.7-0.8c-1,0.5-1.3,1.7-0.8,2.7
		c0.1,0.1,0.2,0.3,0.3,0.4l7,10c0.6,0.9,1.9,1.1,2.8,0.5c0.1-0.1,0.2-0.1,0.3-0.2l19-20c0.8-0.8,0.8-2.1,0-2.8
		C63.5,1004.2,62.9,1004,62.4,1004L62.4,1004z"/>
</g>
</svg>
